<svg xmlns="http://www.w3.org/2000/svg" xmlns:xlink="http://www.w3.org/1999/xlink" width="581" zoomAndPan="magnify" viewBox="0 0 435.75 280.499991" height="374" preserveAspectRatio="xMidYMid meet" version="1.0"><defs><g/></defs><g fill="#1e1e1e" fill-opacity="0.4"><g transform="translate(77.555038, 194.392213)"><g><path d="M 76.96875 11.078125 C 76.757812 11.179688 76.554688 11.234375 76.359375 11.234375 C 76.160156 11.234375 75.765625 11.234375 75.171875 11.234375 C 73.773438 11.234375 72.148438 11.003906 70.296875 10.546875 C 68.453125 10.097656 66.65625 9.550781 64.90625 8.90625 C 63.164062 8.257812 61.671875 7.535156 60.421875 6.734375 C 59.171875 5.941406 58.394531 5.242188 58.09375 4.640625 C 58 3.242188 57.953125 1.796875 57.953125 0.296875 C 57.953125 -1.203125 57.953125 -2.648438 57.953125 -4.046875 C 57.953125 -15.222656 58.773438 -26.898438 60.421875 -39.078125 C 62.066406 -51.253906 64.785156 -64.429688 68.578125 -78.609375 C 68.972656 -80.003906 69.394531 -81.773438 69.84375 -83.921875 C 70.300781 -86.066406 70.78125 -88.390625 71.28125 -90.890625 C 68.882812 -88.992188 66.035156 -85.972656 62.734375 -81.828125 C 59.441406 -77.679688 55.972656 -72.789062 52.328125 -67.15625 C 48.679688 -61.519531 45.035156 -55.332031 41.390625 -48.59375 C 37.753906 -41.851562 34.4375 -35.015625 31.4375 -28.078125 C 28.445312 -21.140625 25.878906 -14.273438 23.734375 -7.484375 C 21.585938 -0.703125 20.265625 5.582031 19.765625 11.375 C 14.972656 9.976562 11.648438 8.582031 9.796875 7.1875 C 7.953125 5.789062 7.03125 4.09375 7.03125 2.09375 C 7.03125 0.300781 7.578125 -2.238281 8.671875 -5.53125 C 9.773438 -8.832031 11.328125 -12.726562 13.328125 -17.21875 C 15.328125 -21.707031 17.769531 -26.722656 20.65625 -32.265625 C 23.550781 -37.804688 26.75 -43.769531 30.25 -50.15625 C 34.238281 -57.445312 38.15625 -64.285156 42 -70.671875 C 45.84375 -77.054688 49.609375 -82.84375 53.296875 -88.03125 C 56.992188 -93.226562 60.613281 -97.722656 64.15625 -101.515625 C 67.707031 -105.304688 71.226562 -108.203125 74.71875 -110.203125 C 76.113281 -110.203125 77.984375 -109.851562 80.328125 -109.15625 C 82.671875 -108.457031 84.96875 -107.609375 87.21875 -106.609375 C 89.46875 -105.609375 91.460938 -104.582031 93.203125 -103.53125 C 94.953125 -102.488281 95.925781 -101.617188 96.125 -100.921875 C 94.726562 -98.128906 93.082031 -93.9375 91.1875 -88.34375 C 89.289062 -82.75 87.367188 -76.410156 85.421875 -69.328125 C 83.472656 -62.242188 81.625 -54.734375 79.875 -46.796875 C 78.132812 -38.859375 76.765625 -31.242188 75.765625 -23.953125 C 78.054688 -29.441406 80.722656 -35.15625 83.765625 -41.09375 C 86.816406 -47.039062 90.039062 -52.929688 93.4375 -58.765625 C 96.832031 -64.609375 100.300781 -70.273438 103.84375 -75.765625 C 107.382812 -81.253906 110.851562 -86.269531 114.25 -90.8125 C 117.644531 -95.351562 120.8125 -99.320312 123.75 -102.71875 C 126.695312 -106.113281 129.316406 -108.609375 131.609375 -110.203125 C 133.015625 -110.203125 134.890625 -109.851562 137.234375 -109.15625 C 139.578125 -108.457031 141.867188 -107.609375 144.109375 -106.609375 C 146.359375 -105.609375 148.359375 -104.582031 150.109375 -103.53125 C 151.859375 -102.488281 152.832031 -101.617188 153.03125 -100.921875 C 149.832031 -95.234375 147.035156 -88.296875 144.640625 -80.109375 C 142.242188 -71.921875 140.222656 -63.332031 138.578125 -54.34375 C 136.929688 -45.363281 135.679688 -36.457031 134.828125 -27.625 C 133.984375 -18.789062 133.5625 -10.878906 133.5625 -3.890625 C 133.5625 -1.597656 133.5625 0.789062 133.5625 3.28125 C 133.5625 5.78125 133.660156 8.378906 133.859375 11.078125 C 132.460938 11.078125 130.789062 10.898438 128.84375 10.546875 C 126.894531 10.203125 125 9.726562 123.15625 9.125 C 121.3125 8.53125 119.640625 7.859375 118.140625 7.109375 C 116.640625 6.359375 115.59375 5.535156 115 4.640625 C 114.894531 3.242188 114.84375 1.796875 114.84375 0.296875 C 114.84375 -1.203125 114.84375 -2.648438 114.84375 -4.046875 C 114.84375 -15.222656 115.664062 -26.898438 117.3125 -39.078125 C 118.957031 -51.253906 121.679688 -64.429688 125.484375 -78.609375 C 125.878906 -80.003906 126.328125 -81.898438 126.828125 -84.296875 C 127.328125 -86.691406 127.828125 -89.1875 128.328125 -91.78125 C 125.523438 -90.382812 122.351562 -87.710938 118.8125 -83.765625 C 115.269531 -79.828125 111.675781 -75.035156 108.03125 -69.390625 C 104.382812 -63.753906 100.789062 -57.492188 97.25 -50.609375 C 93.707031 -43.722656 90.515625 -36.707031 87.671875 -29.5625 C 84.828125 -22.425781 82.429688 -15.335938 80.484375 -8.296875 C 78.535156 -1.265625 77.363281 5.191406 76.96875 11.078125 Z M 76.96875 11.078125 "/></g></g></g><g fill="#1e1e1e" fill-opacity="0.4"><g transform="translate(218.603634, 194.392213)"><g><path d="M 76.96875 11.078125 C 76.757812 11.179688 76.554688 11.234375 76.359375 11.234375 C 76.160156 11.234375 75.765625 11.234375 75.171875 11.234375 C 73.773438 11.234375 72.148438 11.003906 70.296875 10.546875 C 68.453125 10.097656 66.65625 9.550781 64.90625 8.90625 C 63.164062 8.257812 61.671875 7.535156 60.421875 6.734375 C 59.171875 5.941406 58.394531 5.242188 58.09375 4.640625 C 58 3.242188 57.953125 1.796875 57.953125 0.296875 C 57.953125 -1.203125 57.953125 -2.648438 57.953125 -4.046875 C 57.953125 -15.222656 58.773438 -26.898438 60.421875 -39.078125 C 62.066406 -51.253906 64.785156 -64.429688 68.578125 -78.609375 C 68.972656 -80.003906 69.394531 -81.773438 69.84375 -83.921875 C 70.300781 -86.066406 70.78125 -88.390625 71.28125 -90.890625 C 68.882812 -88.992188 66.035156 -85.972656 62.734375 -81.828125 C 59.441406 -77.679688 55.972656 -72.789062 52.328125 -67.15625 C 48.679688 -61.519531 45.035156 -55.332031 41.390625 -48.59375 C 37.753906 -41.851562 34.4375 -35.015625 31.4375 -28.078125 C 28.445312 -21.140625 25.878906 -14.273438 23.734375 -7.484375 C 21.585938 -0.703125 20.265625 5.582031 19.765625 11.375 C 14.972656 9.976562 11.648438 8.582031 9.796875 7.1875 C 7.953125 5.789062 7.03125 4.09375 7.03125 2.09375 C 7.03125 0.300781 7.578125 -2.238281 8.671875 -5.53125 C 9.773438 -8.832031 11.328125 -12.726562 13.328125 -17.21875 C 15.328125 -21.707031 17.769531 -26.722656 20.65625 -32.265625 C 23.550781 -37.804688 26.75 -43.769531 30.25 -50.15625 C 34.238281 -57.445312 38.15625 -64.285156 42 -70.671875 C 45.84375 -77.054688 49.609375 -82.84375 53.296875 -88.03125 C 56.992188 -93.226562 60.613281 -97.722656 64.15625 -101.515625 C 67.707031 -105.304688 71.226562 -108.203125 74.71875 -110.203125 C 76.113281 -110.203125 77.984375 -109.851562 80.328125 -109.15625 C 82.671875 -108.457031 84.96875 -107.609375 87.21875 -106.609375 C 89.46875 -105.609375 91.460938 -104.582031 93.203125 -103.53125 C 94.953125 -102.488281 95.925781 -101.617188 96.125 -100.921875 C 94.726562 -98.128906 93.082031 -93.9375 91.1875 -88.34375 C 89.289062 -82.75 87.367188 -76.410156 85.421875 -69.328125 C 83.472656 -62.242188 81.625 -54.734375 79.875 -46.796875 C 78.132812 -38.859375 76.765625 -31.242188 75.765625 -23.953125 C 78.054688 -29.441406 80.722656 -35.15625 83.765625 -41.09375 C 86.816406 -47.039062 90.039062 -52.929688 93.4375 -58.765625 C 96.832031 -64.609375 100.300781 -70.273438 103.84375 -75.765625 C 107.382812 -81.253906 110.851562 -86.269531 114.25 -90.8125 C 117.644531 -95.351562 120.8125 -99.320312 123.75 -102.71875 C 126.695312 -106.113281 129.316406 -108.609375 131.609375 -110.203125 C 133.015625 -110.203125 134.890625 -109.851562 137.234375 -109.15625 C 139.578125 -108.457031 141.867188 -107.609375 144.109375 -106.609375 C 146.359375 -105.609375 148.359375 -104.582031 150.109375 -103.53125 C 151.859375 -102.488281 152.832031 -101.617188 153.03125 -100.921875 C 149.832031 -95.234375 147.035156 -88.296875 144.640625 -80.109375 C 142.242188 -71.921875 140.222656 -63.332031 138.578125 -54.34375 C 136.929688 -45.363281 135.679688 -36.457031 134.828125 -27.625 C 133.984375 -18.789062 133.5625 -10.878906 133.5625 -3.890625 C 133.5625 -1.597656 133.5625 0.789062 133.5625 3.28125 C 133.5625 5.78125 133.660156 8.378906 133.859375 11.078125 C 132.460938 11.078125 130.789062 10.898438 128.84375 10.546875 C 126.894531 10.203125 125 9.726562 123.15625 9.125 C 121.3125 8.53125 119.640625 7.859375 118.140625 7.109375 C 116.640625 6.359375 115.59375 5.535156 115 4.640625 C 114.894531 3.242188 114.84375 1.796875 114.84375 0.296875 C 114.84375 -1.203125 114.84375 -2.648438 114.84375 -4.046875 C 114.84375 -15.222656 115.664062 -26.898438 117.3125 -39.078125 C 118.957031 -51.253906 121.679688 -64.429688 125.484375 -78.609375 C 125.878906 -80.003906 126.328125 -81.898438 126.828125 -84.296875 C 127.328125 -86.691406 127.828125 -89.1875 128.328125 -91.78125 C 125.523438 -90.382812 122.351562 -87.710938 118.8125 -83.765625 C 115.269531 -79.828125 111.675781 -75.035156 108.03125 -69.390625 C 104.382812 -63.753906 100.789062 -57.492188 97.25 -50.609375 C 93.707031 -43.722656 90.515625 -36.707031 87.671875 -29.5625 C 84.828125 -22.425781 82.429688 -15.335938 80.484375 -8.296875 C 78.535156 -1.265625 77.363281 5.191406 76.96875 11.078125 Z M 76.96875 11.078125 "/></g></g></g><g fill="#ffffff" fill-opacity="1"><g transform="translate(75.569838, 192.407015)"><g><path d="M 76.96875 11.078125 C 76.757812 11.179688 76.554688 11.234375 76.359375 11.234375 C 76.160156 11.234375 75.765625 11.234375 75.171875 11.234375 C 73.773438 11.234375 72.148438 11.003906 70.296875 10.546875 C 68.453125 10.097656 66.65625 9.550781 64.90625 8.90625 C 63.164062 8.257812 61.671875 7.535156 60.421875 6.734375 C 59.171875 5.941406 58.394531 5.242188 58.09375 4.640625 C 58 3.242188 57.953125 1.796875 57.953125 0.296875 C 57.953125 -1.203125 57.953125 -2.648438 57.953125 -4.046875 C 57.953125 -15.222656 58.773438 -26.898438 60.421875 -39.078125 C 62.066406 -51.253906 64.785156 -64.429688 68.578125 -78.609375 C 68.972656 -80.003906 69.394531 -81.773438 69.84375 -83.921875 C 70.300781 -86.066406 70.78125 -88.390625 71.28125 -90.890625 C 68.882812 -88.992188 66.035156 -85.972656 62.734375 -81.828125 C 59.441406 -77.679688 55.972656 -72.789062 52.328125 -67.15625 C 48.679688 -61.519531 45.035156 -55.332031 41.390625 -48.59375 C 37.753906 -41.851562 34.4375 -35.015625 31.4375 -28.078125 C 28.445312 -21.140625 25.878906 -14.273438 23.734375 -7.484375 C 21.585938 -0.703125 20.265625 5.582031 19.765625 11.375 C 14.972656 9.976562 11.648438 8.582031 9.796875 7.1875 C 7.953125 5.789062 7.03125 4.09375 7.03125 2.09375 C 7.03125 0.300781 7.578125 -2.238281 8.671875 -5.53125 C 9.773438 -8.832031 11.328125 -12.726562 13.328125 -17.21875 C 15.328125 -21.707031 17.769531 -26.722656 20.65625 -32.265625 C 23.550781 -37.804688 26.75 -43.769531 30.25 -50.15625 C 34.238281 -57.445312 38.15625 -64.285156 42 -70.671875 C 45.84375 -77.054688 49.609375 -82.84375 53.296875 -88.03125 C 56.992188 -93.226562 60.613281 -97.722656 64.15625 -101.515625 C 67.707031 -105.304688 71.226562 -108.203125 74.71875 -110.203125 C 76.113281 -110.203125 77.984375 -109.851562 80.328125 -109.15625 C 82.671875 -108.457031 84.96875 -107.609375 87.21875 -106.609375 C 89.46875 -105.609375 91.460938 -104.582031 93.203125 -103.53125 C 94.953125 -102.488281 95.925781 -101.617188 96.125 -100.921875 C 94.726562 -98.128906 93.082031 -93.9375 91.1875 -88.34375 C 89.289062 -82.75 87.367188 -76.410156 85.421875 -69.328125 C 83.472656 -62.242188 81.625 -54.734375 79.875 -46.796875 C 78.132812 -38.859375 76.765625 -31.242188 75.765625 -23.953125 C 78.054688 -29.441406 80.722656 -35.15625 83.765625 -41.09375 C 86.816406 -47.039062 90.039062 -52.929688 93.4375 -58.765625 C 96.832031 -64.609375 100.300781 -70.273438 103.84375 -75.765625 C 107.382812 -81.253906 110.851562 -86.269531 114.25 -90.8125 C 117.644531 -95.351562 120.8125 -99.320312 123.75 -102.71875 C 126.695312 -106.113281 129.316406 -108.609375 131.609375 -110.203125 C 133.015625 -110.203125 134.890625 -109.851562 137.234375 -109.15625 C 139.578125 -108.457031 141.867188 -107.609375 144.109375 -106.609375 C 146.359375 -105.609375 148.359375 -104.582031 150.109375 -103.53125 C 151.859375 -102.488281 152.832031 -101.617188 153.03125 -100.921875 C 149.832031 -95.234375 147.035156 -88.296875 144.640625 -80.109375 C 142.242188 -71.921875 140.222656 -63.332031 138.578125 -54.34375 C 136.929688 -45.363281 135.679688 -36.457031 134.828125 -27.625 C 133.984375 -18.789062 133.5625 -10.878906 133.5625 -3.890625 C 133.5625 -1.597656 133.5625 0.789062 133.5625 3.28125 C 133.5625 5.78125 133.660156 8.378906 133.859375 11.078125 C 132.460938 11.078125 130.789062 10.898438 128.84375 10.546875 C 126.894531 10.203125 125 9.726562 123.15625 9.125 C 121.3125 8.53125 119.640625 7.859375 118.140625 7.109375 C 116.640625 6.359375 115.59375 5.535156 115 4.640625 C 114.894531 3.242188 114.84375 1.796875 114.84375 0.296875 C 114.84375 -1.203125 114.84375 -2.648438 114.84375 -4.046875 C 114.84375 -15.222656 115.664062 -26.898438 117.3125 -39.078125 C 118.957031 -51.253906 121.679688 -64.429688 125.484375 -78.609375 C 125.878906 -80.003906 126.328125 -81.898438 126.828125 -84.296875 C 127.328125 -86.691406 127.828125 -89.1875 128.328125 -91.78125 C 125.523438 -90.382812 122.351562 -87.710938 118.8125 -83.765625 C 115.269531 -79.828125 111.675781 -75.035156 108.03125 -69.390625 C 104.382812 -63.753906 100.789062 -57.492188 97.25 -50.609375 C 93.707031 -43.722656 90.515625 -36.707031 87.671875 -29.5625 C 84.828125 -22.425781 82.429688 -15.335938 80.484375 -8.296875 C 78.535156 -1.265625 77.363281 5.191406 76.96875 11.078125 Z M 76.96875 11.078125 "/></g></g></g><g fill="#ffffff" fill-opacity="1"><g transform="translate(216.618435, 192.407015)"><g><path d="M 76.96875 11.078125 C 76.757812 11.179688 76.554688 11.234375 76.359375 11.234375 C 76.160156 11.234375 75.765625 11.234375 75.171875 11.234375 C 73.773438 11.234375 72.148438 11.003906 70.296875 10.546875 C 68.453125 10.097656 66.65625 9.550781 64.90625 8.90625 C 63.164062 8.257812 61.671875 7.535156 60.421875 6.734375 C 59.171875 5.941406 58.394531 5.242188 58.09375 4.640625 C 58 3.242188 57.953125 1.796875 57.953125 0.296875 C 57.953125 -1.203125 57.953125 -2.648438 57.953125 -4.046875 C 57.953125 -15.222656 58.773438 -26.898438 60.421875 -39.078125 C 62.066406 -51.253906 64.785156 -64.429688 68.578125 -78.609375 C 68.972656 -80.003906 69.394531 -81.773438 69.84375 -83.921875 C 70.300781 -86.066406 70.78125 -88.390625 71.28125 -90.890625 C 68.882812 -88.992188 66.035156 -85.972656 62.734375 -81.828125 C 59.441406 -77.679688 55.972656 -72.789062 52.328125 -67.15625 C 48.679688 -61.519531 45.035156 -55.332031 41.390625 -48.59375 C 37.753906 -41.851562 34.4375 -35.015625 31.4375 -28.078125 C 28.445312 -21.140625 25.878906 -14.273438 23.734375 -7.484375 C 21.585938 -0.703125 20.265625 5.582031 19.765625 11.375 C 14.972656 9.976562 11.648438 8.582031 9.796875 7.1875 C 7.953125 5.789062 7.03125 4.09375 7.03125 2.09375 C 7.03125 0.300781 7.578125 -2.238281 8.671875 -5.53125 C 9.773438 -8.832031 11.328125 -12.726562 13.328125 -17.21875 C 15.328125 -21.707031 17.769531 -26.722656 20.65625 -32.265625 C 23.550781 -37.804688 26.75 -43.769531 30.25 -50.15625 C 34.238281 -57.445312 38.15625 -64.285156 42 -70.671875 C 45.84375 -77.054688 49.609375 -82.84375 53.296875 -88.03125 C 56.992188 -93.226562 60.613281 -97.722656 64.15625 -101.515625 C 67.707031 -105.304688 71.226562 -108.203125 74.71875 -110.203125 C 76.113281 -110.203125 77.984375 -109.851562 80.328125 -109.15625 C 82.671875 -108.457031 84.96875 -107.609375 87.21875 -106.609375 C 89.46875 -105.609375 91.460938 -104.582031 93.203125 -103.53125 C 94.953125 -102.488281 95.925781 -101.617188 96.125 -100.921875 C 94.726562 -98.128906 93.082031 -93.9375 91.1875 -88.34375 C 89.289062 -82.75 87.367188 -76.410156 85.421875 -69.328125 C 83.472656 -62.242188 81.625 -54.734375 79.875 -46.796875 C 78.132812 -38.859375 76.765625 -31.242188 75.765625 -23.953125 C 78.054688 -29.441406 80.722656 -35.15625 83.765625 -41.09375 C 86.816406 -47.039062 90.039062 -52.929688 93.4375 -58.765625 C 96.832031 -64.609375 100.300781 -70.273438 103.84375 -75.765625 C 107.382812 -81.253906 110.851562 -86.269531 114.25 -90.8125 C 117.644531 -95.351562 120.8125 -99.320312 123.75 -102.71875 C 126.695312 -106.113281 129.316406 -108.609375 131.609375 -110.203125 C 133.015625 -110.203125 134.890625 -109.851562 137.234375 -109.15625 C 139.578125 -108.457031 141.867188 -107.609375 144.109375 -106.609375 C 146.359375 -105.609375 148.359375 -104.582031 150.109375 -103.53125 C 151.859375 -102.488281 152.832031 -101.617188 153.03125 -100.921875 C 149.832031 -95.234375 147.035156 -88.296875 144.640625 -80.109375 C 142.242188 -71.921875 140.222656 -63.332031 138.578125 -54.34375 C 136.929688 -45.363281 135.679688 -36.457031 134.828125 -27.625 C 133.984375 -18.789062 133.5625 -10.878906 133.5625 -3.890625 C 133.5625 -1.597656 133.5625 0.789062 133.5625 3.28125 C 133.5625 5.78125 133.660156 8.378906 133.859375 11.078125 C 132.460938 11.078125 130.789062 10.898438 128.84375 10.546875 C 126.894531 10.203125 125 9.726562 123.15625 9.125 C 121.3125 8.53125 119.640625 7.859375 118.140625 7.109375 C 116.640625 6.359375 115.59375 5.535156 115 4.640625 C 114.894531 3.242188 114.84375 1.796875 114.84375 0.296875 C 114.84375 -1.203125 114.84375 -2.648438 114.84375 -4.046875 C 114.84375 -15.222656 115.664062 -26.898438 117.3125 -39.078125 C 118.957031 -51.253906 121.679688 -64.429688 125.484375 -78.609375 C 125.878906 -80.003906 126.328125 -81.898438 126.828125 -84.296875 C 127.328125 -86.691406 127.828125 -89.1875 128.328125 -91.78125 C 125.523438 -90.382812 122.351562 -87.710938 118.8125 -83.765625 C 115.269531 -79.828125 111.675781 -75.035156 108.03125 -69.390625 C 104.382812 -63.753906 100.789062 -57.492188 97.25 -50.609375 C 93.707031 -43.722656 90.515625 -36.707031 87.671875 -29.5625 C 84.828125 -22.425781 82.429688 -15.335938 80.484375 -8.296875 C 78.535156 -1.265625 77.363281 5.191406 76.96875 11.078125 Z M 76.96875 11.078125 "/></g></g></g><g fill="#1e1e1e" fill-opacity="0.4"><g transform="translate(143.869468, 234.169707)"><g><path d="M 10.359375 -9.25 L 7.375 -2.515625 L 5.875 -2.515625 L 2.875 -9.25 L 2.875 0 L 1.4375 0 L 1.4375 -11.171875 L 3.5625 -11.171875 L 6.65625 -4.109375 L 9.703125 -11.171875 L 11.875 -11.171875 L 11.875 0 L 10.359375 0 Z M 10.359375 -9.25 "/></g></g></g><g fill="#1e1e1e" fill-opacity="0.4"><g transform="translate(159.055196, 234.169707)"><g><path d="M 0.15625 -0.40625 L 4.53125 -11.171875 L 6.203125 -11.171875 L 10.5 -0.40625 L 9.125 0.15625 L 7.875 -3.03125 L 2.703125 -3.03125 L 1.453125 0.125 Z M 3.171875 -4.3125 L 7.375 -4.3125 L 5.28125 -9.671875 Z M 3.171875 -4.3125 "/></g></g></g><g fill="#1e1e1e" fill-opacity="0.4"><g transform="translate(171.590277, 234.169707)"><g><path d="M 4.078125 -11.171875 L 5.59375 -11.171875 L 5.59375 -3.6875 C 5.59375 -3.007812 5.515625 -2.425781 5.359375 -1.9375 C 5.210938 -1.445312 5 -1.039062 4.71875 -0.71875 C 4.445312 -0.40625 4.117188 -0.175781 3.734375 -0.03125 C 3.347656 0.113281 2.921875 0.1875 2.453125 0.1875 C 1.960938 0.1875 1.503906 0.101562 1.078125 -0.0625 C 0.648438 -0.226562 0.289062 -0.453125 0 -0.734375 L 0.734375 -1.90625 C 0.941406 -1.675781 1.195312 -1.488281 1.5 -1.34375 C 1.800781 -1.195312 2.101562 -1.125 2.40625 -1.125 C 2.914062 -1.125 3.320312 -1.300781 3.625 -1.65625 C 3.925781 -2.019531 4.078125 -2.644531 4.078125 -3.53125 Z M 4.078125 -11.171875 "/></g></g></g><g fill="#1e1e1e" fill-opacity="0.4"><g transform="translate(180.32505, 234.169707)"><g><path d="M 1.4375 -11.171875 L 8.140625 -11.171875 L 8.140625 -9.875 L 2.953125 -9.875 L 2.953125 -6.46875 L 7.421875 -6.46875 L 7.421875 -5.1875 L 2.953125 -5.1875 L 2.953125 -1.3125 L 8.140625 -1.3125 L 8.140625 0 L 1.4375 0 Z M 1.4375 -11.171875 "/></g></g></g><g fill="#1e1e1e" fill-opacity="0.4"><g transform="translate(191.055786, 234.169707)"><g><path d="M 2.34375 -5.609375 C 2.34375 -4.929688 2.429688 -4.316406 2.609375 -3.765625 C 2.785156 -3.222656 3.03125 -2.753906 3.34375 -2.359375 C 3.65625 -1.960938 4.03125 -1.660156 4.46875 -1.453125 C 4.90625 -1.242188 5.382812 -1.140625 5.90625 -1.140625 C 6.425781 -1.140625 6.878906 -1.195312 7.265625 -1.3125 C 7.648438 -1.4375 8.023438 -1.609375 8.390625 -1.828125 L 8.84375 -0.5625 C 8.445312 -0.34375 7.992188 -0.160156 7.484375 -0.015625 C 6.984375 0.117188 6.398438 0.1875 5.734375 0.1875 C 4.992188 0.1875 4.320312 0.0546875 3.71875 -0.203125 C 3.125 -0.472656 2.609375 -0.851562 2.171875 -1.34375 C 1.734375 -1.84375 1.394531 -2.445312 1.15625 -3.15625 C 0.914062 -3.863281 0.796875 -4.660156 0.796875 -5.546875 C 0.796875 -6.390625 0.914062 -7.164062 1.15625 -7.875 C 1.394531 -8.59375 1.738281 -9.207031 2.1875 -9.71875 C 2.632812 -10.238281 3.175781 -10.644531 3.8125 -10.9375 C 4.445312 -11.226562 5.148438 -11.375 5.921875 -11.375 C 6.460938 -11.375 6.945312 -11.320312 7.375 -11.21875 C 7.8125 -11.113281 8.222656 -10.972656 8.609375 -10.796875 L 8.140625 -9.515625 C 7.816406 -9.671875 7.476562 -9.796875 7.125 -9.890625 C 6.78125 -9.992188 6.375 -10.046875 5.90625 -10.046875 C 5.394531 -10.046875 4.921875 -9.945312 4.484375 -9.75 C 4.046875 -9.550781 3.664062 -9.257812 3.34375 -8.875 C 3.03125 -8.488281 2.785156 -8.019531 2.609375 -7.46875 C 2.429688 -6.925781 2.34375 -6.304688 2.34375 -5.609375 Z M 2.34375 -5.609375 "/></g></g></g><g fill="#1e1e1e" fill-opacity="0.4"><g transform="translate(202.409264, 234.169707)"><g><path d="M 0.15625 -11.171875 L 8.546875 -11.171875 L 8.546875 -9.84375 L 5.109375 -9.84375 L 5.109375 0 L 3.59375 0 L 3.59375 -9.84375 L 0.15625 -9.84375 Z M 0.15625 -11.171875 "/></g></g></g><g fill="#1e1e1e" fill-opacity="0.4"><g transform="translate(212.980319, 234.169707)"><g><path d="M 1.4375 0 L 1.4375 -11.171875 L 2.953125 -11.171875 L 2.953125 0 Z M 1.4375 0 "/></g></g></g><g fill="#1e1e1e" fill-opacity="0.4"><g transform="translate(219.240105, 234.169707)"><g><path d="M 2.34375 -5.609375 C 2.34375 -4.929688 2.429688 -4.316406 2.609375 -3.765625 C 2.785156 -3.222656 3.03125 -2.753906 3.34375 -2.359375 C 3.65625 -1.960938 4.03125 -1.660156 4.46875 -1.453125 C 4.90625 -1.242188 5.382812 -1.140625 5.90625 -1.140625 C 6.425781 -1.140625 6.878906 -1.195312 7.265625 -1.3125 C 7.648438 -1.4375 8.023438 -1.609375 8.390625 -1.828125 L 8.84375 -0.5625 C 8.445312 -0.34375 7.992188 -0.160156 7.484375 -0.015625 C 6.984375 0.117188 6.398438 0.1875 5.734375 0.1875 C 4.992188 0.1875 4.320312 0.0546875 3.71875 -0.203125 C 3.125 -0.472656 2.609375 -0.851562 2.171875 -1.34375 C 1.734375 -1.84375 1.394531 -2.445312 1.15625 -3.15625 C 0.914062 -3.863281 0.796875 -4.660156 0.796875 -5.546875 C 0.796875 -6.390625 0.914062 -7.164062 1.15625 -7.875 C 1.394531 -8.59375 1.738281 -9.207031 2.1875 -9.71875 C 2.632812 -10.238281 3.175781 -10.644531 3.8125 -10.9375 C 4.445312 -11.226562 5.148438 -11.375 5.921875 -11.375 C 6.460938 -11.375 6.945312 -11.320312 7.375 -11.21875 C 7.8125 -11.113281 8.222656 -10.972656 8.609375 -10.796875 L 8.140625 -9.515625 C 7.816406 -9.671875 7.476562 -9.796875 7.125 -9.890625 C 6.78125 -9.992188 6.375 -10.046875 5.90625 -10.046875 C 5.394531 -10.046875 4.921875 -9.945312 4.484375 -9.75 C 4.046875 -9.550781 3.664062 -9.257812 3.34375 -8.875 C 3.03125 -8.488281 2.785156 -8.019531 2.609375 -7.46875 C 2.429688 -6.925781 2.34375 -6.304688 2.34375 -5.609375 Z M 2.34375 -5.609375 "/></g></g></g><g fill="#1e1e1e" fill-opacity="0.4"><g transform="translate(230.593582, 234.169707)"><g/></g></g><g fill="#1e1e1e" fill-opacity="0.4"><g transform="translate(237.252559, 234.169707)"><g><path d="M 10.359375 -9.25 L 7.375 -2.515625 L 5.875 -2.515625 L 2.875 -9.25 L 2.875 0 L 1.4375 0 L 1.4375 -11.171875 L 3.5625 -11.171875 L 6.65625 -4.109375 L 9.703125 -11.171875 L 11.875 -11.171875 L 11.875 0 L 10.359375 0 Z M 10.359375 -9.25 "/></g></g></g><g fill="#1e1e1e" fill-opacity="0.4"><g transform="translate(252.438292, 234.169707)"><g><path d="M 1.4375 0 L 1.4375 -11.171875 L 2.953125 -11.171875 L 2.953125 0 Z M 1.4375 0 "/></g></g></g><g fill="#1e1e1e" fill-opacity="0.4"><g transform="translate(258.698083, 234.169707)"><g><path d="M 8.078125 0 L 1.4375 0 L 1.4375 -11.171875 L 2.953125 -11.171875 L 2.953125 -1.359375 L 8.078125 -1.359375 Z M 8.078125 0 "/></g></g></g><g fill="#1e1e1e" fill-opacity="0.4"><g transform="translate(268.726243, 234.169707)"><g><path d="M 1.4375 -11.171875 L 8.140625 -11.171875 L 8.140625 -9.875 L 2.953125 -9.875 L 2.953125 -6.46875 L 7.421875 -6.46875 L 7.421875 -5.1875 L 2.953125 -5.1875 L 2.953125 -1.3125 L 8.140625 -1.3125 L 8.140625 0 L 1.4375 0 Z M 1.4375 -11.171875 "/></g></g></g><g fill="#1e1e1e" fill-opacity="0.4"><g transform="translate(279.456984, 234.169707)"><g><path d="M 1.25 -2.21875 C 1.632812 -1.894531 2.0625 -1.632812 2.53125 -1.4375 C 3.007812 -1.238281 3.570312 -1.140625 4.21875 -1.140625 C 4.976562 -1.140625 5.582031 -1.296875 6.03125 -1.609375 C 6.476562 -1.929688 6.703125 -2.363281 6.703125 -2.90625 C 6.703125 -3.125 6.671875 -3.328125 6.609375 -3.515625 C 6.546875 -3.710938 6.421875 -3.898438 6.234375 -4.078125 C 6.046875 -4.253906 5.785156 -4.429688 5.453125 -4.609375 C 5.117188 -4.785156 4.6875 -4.972656 4.15625 -5.171875 C 3.582031 -5.398438 3.09375 -5.617188 2.6875 -5.828125 C 2.289062 -6.046875 1.96875 -6.285156 1.71875 -6.546875 C 1.476562 -6.816406 1.300781 -7.109375 1.1875 -7.421875 C 1.082031 -7.734375 1.03125 -8.09375 1.03125 -8.5 C 1.03125 -8.894531 1.113281 -9.265625 1.28125 -9.609375 C 1.445312 -9.960938 1.691406 -10.269531 2.015625 -10.53125 C 2.335938 -10.789062 2.734375 -10.992188 3.203125 -11.140625 C 3.679688 -11.296875 4.226562 -11.375 4.84375 -11.375 C 5.5 -11.375 6.085938 -11.304688 6.609375 -11.171875 C 7.128906 -11.035156 7.644531 -10.847656 8.15625 -10.609375 L 7.59375 -9.3125 C 7.238281 -9.519531 6.816406 -9.695312 6.328125 -9.84375 C 5.847656 -9.988281 5.34375 -10.0625 4.8125 -10.0625 C 4.101562 -10.0625 3.546875 -9.925781 3.140625 -9.65625 C 2.734375 -9.382812 2.53125 -9.023438 2.53125 -8.578125 C 2.53125 -8.359375 2.5625 -8.164062 2.625 -8 C 2.6875 -7.84375 2.800781 -7.6875 2.96875 -7.53125 C 3.144531 -7.375 3.390625 -7.210938 3.703125 -7.046875 C 4.023438 -6.890625 4.445312 -6.71875 4.96875 -6.53125 C 5.582031 -6.300781 6.101562 -6.0625 6.53125 -5.8125 C 6.957031 -5.570312 7.296875 -5.3125 7.546875 -5.03125 C 7.804688 -4.75 7.988281 -4.445312 8.09375 -4.125 C 8.207031 -3.8125 8.265625 -3.460938 8.265625 -3.078125 C 8.265625 -2.554688 8.164062 -2.09375 7.96875 -1.6875 C 7.769531 -1.28125 7.488281 -0.9375 7.125 -0.65625 C 6.769531 -0.375 6.34375 -0.160156 5.84375 -0.015625 C 5.34375 0.117188 4.800781 0.1875 4.21875 0.1875 C 3.4375 0.1875 2.726562 0.0820312 2.09375 -0.125 C 1.457031 -0.332031 0.921875 -0.601562 0.484375 -0.9375 Z M 1.25 -2.21875 "/></g></g></g><g fill="#ffffff" fill-opacity="1"><g transform="translate(143.657714, 233.957946)"><g><path d="M 10.359375 -9.25 L 7.375 -2.515625 L 5.875 -2.515625 L 2.875 -9.25 L 2.875 0 L 1.4375 0 L 1.4375 -11.171875 L 3.5625 -11.171875 L 6.65625 -4.109375 L 9.703125 -11.171875 L 11.875 -11.171875 L 11.875 0 L 10.359375 0 Z M 10.359375 -9.25 "/></g></g></g><g fill="#ffffff" fill-opacity="1"><g transform="translate(158.843442, 233.957946)"><g><path d="M 0.15625 -0.40625 L 4.53125 -11.171875 L 6.203125 -11.171875 L 10.5 -0.40625 L 9.125 0.15625 L 7.875 -3.03125 L 2.703125 -3.03125 L 1.453125 0.125 Z M 3.171875 -4.3125 L 7.375 -4.3125 L 5.28125 -9.671875 Z M 3.171875 -4.3125 "/></g></g></g><g fill="#ffffff" fill-opacity="1"><g transform="translate(171.378523, 233.957946)"><g><path d="M 4.078125 -11.171875 L 5.59375 -11.171875 L 5.59375 -3.6875 C 5.59375 -3.007812 5.515625 -2.425781 5.359375 -1.9375 C 5.210938 -1.445312 5 -1.039062 4.71875 -0.71875 C 4.445312 -0.40625 4.117188 -0.175781 3.734375 -0.03125 C 3.347656 0.113281 2.921875 0.1875 2.453125 0.1875 C 1.960938 0.1875 1.503906 0.101562 1.078125 -0.0625 C 0.648438 -0.226562 0.289062 -0.453125 0 -0.734375 L 0.734375 -1.90625 C 0.941406 -1.675781 1.195312 -1.488281 1.5 -1.34375 C 1.800781 -1.195312 2.101562 -1.125 2.40625 -1.125 C 2.914062 -1.125 3.320312 -1.300781 3.625 -1.65625 C 3.925781 -2.019531 4.078125 -2.644531 4.078125 -3.53125 Z M 4.078125 -11.171875 "/></g></g></g><g fill="#ffffff" fill-opacity="1"><g transform="translate(180.113297, 233.957946)"><g><path d="M 1.4375 -11.171875 L 8.140625 -11.171875 L 8.140625 -9.875 L 2.953125 -9.875 L 2.953125 -6.46875 L 7.421875 -6.46875 L 7.421875 -5.1875 L 2.953125 -5.1875 L 2.953125 -1.3125 L 8.140625 -1.3125 L 8.140625 0 L 1.4375 0 Z M 1.4375 -11.171875 "/></g></g></g><g fill="#ffffff" fill-opacity="1"><g transform="translate(190.844033, 233.957946)"><g><path d="M 2.34375 -5.609375 C 2.34375 -4.929688 2.429688 -4.316406 2.609375 -3.765625 C 2.785156 -3.222656 3.03125 -2.753906 3.34375 -2.359375 C 3.65625 -1.960938 4.03125 -1.660156 4.46875 -1.453125 C 4.90625 -1.242188 5.382812 -1.140625 5.90625 -1.140625 C 6.425781 -1.140625 6.878906 -1.195312 7.265625 -1.3125 C 7.648438 -1.4375 8.023438 -1.609375 8.390625 -1.828125 L 8.84375 -0.5625 C 8.445312 -0.34375 7.992188 -0.160156 7.484375 -0.015625 C 6.984375 0.117188 6.398438 0.1875 5.734375 0.1875 C 4.992188 0.1875 4.320312 0.0546875 3.71875 -0.203125 C 3.125 -0.472656 2.609375 -0.851562 2.171875 -1.34375 C 1.734375 -1.84375 1.394531 -2.445312 1.15625 -3.15625 C 0.914062 -3.863281 0.796875 -4.660156 0.796875 -5.546875 C 0.796875 -6.390625 0.914062 -7.164062 1.15625 -7.875 C 1.394531 -8.59375 1.738281 -9.207031 2.1875 -9.71875 C 2.632812 -10.238281 3.175781 -10.644531 3.8125 -10.9375 C 4.445312 -11.226562 5.148438 -11.375 5.921875 -11.375 C 6.460938 -11.375 6.945312 -11.320312 7.375 -11.21875 C 7.8125 -11.113281 8.222656 -10.972656 8.609375 -10.796875 L 8.140625 -9.515625 C 7.816406 -9.671875 7.476562 -9.796875 7.125 -9.890625 C 6.78125 -9.992188 6.375 -10.046875 5.90625 -10.046875 C 5.394531 -10.046875 4.921875 -9.945312 4.484375 -9.75 C 4.046875 -9.550781 3.664062 -9.257812 3.34375 -8.875 C 3.03125 -8.488281 2.785156 -8.019531 2.609375 -7.46875 C 2.429688 -6.925781 2.34375 -6.304688 2.34375 -5.609375 Z M 2.34375 -5.609375 "/></g></g></g><g fill="#ffffff" fill-opacity="1"><g transform="translate(202.19751, 233.957946)"><g><path d="M 0.15625 -11.171875 L 8.546875 -11.171875 L 8.546875 -9.84375 L 5.109375 -9.84375 L 5.109375 0 L 3.59375 0 L 3.59375 -9.84375 L 0.15625 -9.84375 Z M 0.15625 -11.171875 "/></g></g></g><g fill="#ffffff" fill-opacity="1"><g transform="translate(212.768565, 233.957946)"><g><path d="M 1.4375 0 L 1.4375 -11.171875 L 2.953125 -11.171875 L 2.953125 0 Z M 1.4375 0 "/></g></g></g><g fill="#ffffff" fill-opacity="1"><g transform="translate(219.028351, 233.957946)"><g><path d="M 2.34375 -5.609375 C 2.34375 -4.929688 2.429688 -4.316406 2.609375 -3.765625 C 2.785156 -3.222656 3.03125 -2.753906 3.34375 -2.359375 C 3.65625 -1.960938 4.03125 -1.660156 4.46875 -1.453125 C 4.90625 -1.242188 5.382812 -1.140625 5.90625 -1.140625 C 6.425781 -1.140625 6.878906 -1.195312 7.265625 -1.3125 C 7.648438 -1.4375 8.023438 -1.609375 8.390625 -1.828125 L 8.84375 -0.5625 C 8.445312 -0.34375 7.992188 -0.160156 7.484375 -0.015625 C 6.984375 0.117188 6.398438 0.1875 5.734375 0.1875 C 4.992188 0.1875 4.320312 0.0546875 3.71875 -0.203125 C 3.125 -0.472656 2.609375 -0.851562 2.171875 -1.34375 C 1.734375 -1.84375 1.394531 -2.445312 1.15625 -3.15625 C 0.914062 -3.863281 0.796875 -4.660156 0.796875 -5.546875 C 0.796875 -6.390625 0.914062 -7.164062 1.15625 -7.875 C 1.394531 -8.59375 1.738281 -9.207031 2.1875 -9.71875 C 2.632812 -10.238281 3.175781 -10.644531 3.8125 -10.9375 C 4.445312 -11.226562 5.148438 -11.375 5.921875 -11.375 C 6.460938 -11.375 6.945312 -11.320312 7.375 -11.21875 C 7.8125 -11.113281 8.222656 -10.972656 8.609375 -10.796875 L 8.140625 -9.515625 C 7.816406 -9.671875 7.476562 -9.796875 7.125 -9.890625 C 6.78125 -9.992188 6.375 -10.046875 5.90625 -10.046875 C 5.394531 -10.046875 4.921875 -9.945312 4.484375 -9.75 C 4.046875 -9.550781 3.664062 -9.257812 3.34375 -8.875 C 3.03125 -8.488281 2.785156 -8.019531 2.609375 -7.46875 C 2.429688 -6.925781 2.34375 -6.304688 2.34375 -5.609375 Z M 2.34375 -5.609375 "/></g></g></g><g fill="#ffffff" fill-opacity="1"><g transform="translate(230.381829, 233.957946)"><g/></g></g><g fill="#ffffff" fill-opacity="1"><g transform="translate(237.040805, 233.957946)"><g><path d="M 10.359375 -9.25 L 7.375 -2.515625 L 5.875 -2.515625 L 2.875 -9.25 L 2.875 0 L 1.4375 0 L 1.4375 -11.171875 L 3.5625 -11.171875 L 6.65625 -4.109375 L 9.703125 -11.171875 L 11.875 -11.171875 L 11.875 0 L 10.359375 0 Z M 10.359375 -9.25 "/></g></g></g><g fill="#ffffff" fill-opacity="1"><g transform="translate(252.226538, 233.957946)"><g><path d="M 1.4375 0 L 1.4375 -11.171875 L 2.953125 -11.171875 L 2.953125 0 Z M 1.4375 0 "/></g></g></g><g fill="#ffffff" fill-opacity="1"><g transform="translate(258.486329, 233.957946)"><g><path d="M 8.078125 0 L 1.4375 0 L 1.4375 -11.171875 L 2.953125 -11.171875 L 2.953125 -1.359375 L 8.078125 -1.359375 Z M 8.078125 0 "/></g></g></g><g fill="#ffffff" fill-opacity="1"><g transform="translate(268.514489, 233.957946)"><g><path d="M 1.4375 -11.171875 L 8.140625 -11.171875 L 8.140625 -9.875 L 2.953125 -9.875 L 2.953125 -6.46875 L 7.421875 -6.46875 L 7.421875 -5.1875 L 2.953125 -5.1875 L 2.953125 -1.3125 L 8.140625 -1.3125 L 8.140625 0 L 1.4375 0 Z M 1.4375 -11.171875 "/></g></g></g><g fill="#ffffff" fill-opacity="1"><g transform="translate(279.245231, 233.957946)"><g><path d="M 1.25 -2.21875 C 1.632812 -1.894531 2.0625 -1.632812 2.53125 -1.4375 C 3.007812 -1.238281 3.570312 -1.140625 4.21875 -1.140625 C 4.976562 -1.140625 5.582031 -1.296875 6.03125 -1.609375 C 6.476562 -1.929688 6.703125 -2.363281 6.703125 -2.90625 C 6.703125 -3.125 6.671875 -3.328125 6.609375 -3.515625 C 6.546875 -3.710938 6.421875 -3.898438 6.234375 -4.078125 C 6.046875 -4.253906 5.785156 -4.429688 5.453125 -4.609375 C 5.117188 -4.785156 4.6875 -4.972656 4.15625 -5.171875 C 3.582031 -5.398438 3.09375 -5.617188 2.6875 -5.828125 C 2.289062 -6.046875 1.96875 -6.285156 1.71875 -6.546875 C 1.476562 -6.816406 1.300781 -7.109375 1.1875 -7.421875 C 1.082031 -7.734375 1.03125 -8.09375 1.03125 -8.5 C 1.03125 -8.894531 1.113281 -9.265625 1.28125 -9.609375 C 1.445312 -9.960938 1.691406 -10.269531 2.015625 -10.53125 C 2.335938 -10.789062 2.734375 -10.992188 3.203125 -11.140625 C 3.679688 -11.296875 4.226562 -11.375 4.84375 -11.375 C 5.5 -11.375 6.085938 -11.304688 6.609375 -11.171875 C 7.128906 -11.035156 7.644531 -10.847656 8.15625 -10.609375 L 7.59375 -9.3125 C 7.238281 -9.519531 6.816406 -9.695312 6.328125 -9.84375 C 5.847656 -9.988281 5.34375 -10.0625 4.8125 -10.0625 C 4.101562 -10.0625 3.546875 -9.925781 3.140625 -9.65625 C 2.734375 -9.382812 2.53125 -9.023438 2.53125 -8.578125 C 2.53125 -8.359375 2.5625 -8.164062 2.625 -8 C 2.6875 -7.84375 2.800781 -7.6875 2.96875 -7.53125 C 3.144531 -7.375 3.390625 -7.210938 3.703125 -7.046875 C 4.023438 -6.890625 4.445312 -6.71875 4.96875 -6.53125 C 5.582031 -6.300781 6.101562 -6.0625 6.53125 -5.8125 C 6.957031 -5.570312 7.296875 -5.3125 7.546875 -5.03125 C 7.804688 -4.75 7.988281 -4.445312 8.09375 -4.125 C 8.207031 -3.8125 8.265625 -3.460938 8.265625 -3.078125 C 8.265625 -2.554688 8.164062 -2.09375 7.96875 -1.6875 C 7.769531 -1.28125 7.488281 -0.9375 7.125 -0.65625 C 6.769531 -0.375 6.34375 -0.160156 5.84375 -0.015625 C 5.34375 0.117188 4.800781 0.1875 4.21875 0.1875 C 3.4375 0.1875 2.726562 0.0820312 2.09375 -0.125 C 1.457031 -0.332031 0.921875 -0.601562 0.484375 -0.9375 Z M 1.25 -2.21875 "/></g></g></g><path stroke-linecap="butt" transform="matrix(0.748665, 0, 0, 0.748665, 77.732218, 228.342955)" fill="none" stroke-linejoin="miter" d="M -0.00233643 0.997627 L 41.044662 0.997627 " stroke="#ece6db" stroke-width="2" stroke-opacity="1" stroke-miterlimit="4"/><path stroke-linecap="butt" transform="matrix(0.748665, 0, 0, 0.748665, 324.791823, 228.342955)" fill="none" stroke-linejoin="miter" d="M 0.00153039 0.997627 L 41.048529 0.997627 " stroke="#ece6db" stroke-width="2" stroke-opacity="1" stroke-miterlimit="4"/></svg>