<svg xmlns="http://www.w3.org/2000/svg" version="1.1" xmlns:xlink="http://www.w3.org/1999/xlink" xmlns:svgjs="http://svgjs.dev/svgjs" width="2000" height="1247" viewBox="0 0 2000 1247">
<defs>
  <filter id="shadow">
    <feDropShadow dx="0.3" dy="0.3" stdDeviation="0.3" />
  </filter>
</defs>
  <g transform="matrix(1,0,0,1,-1.2121212121212466,0.5048582995951847)">
    <svg viewBox="0 0 396 247" data-background-color="#1f2d5a" preserveAspectRatio="xMidYMid meet" height="1247" width="2000" xmlns="http://www.w3.org/2000/svg" xmlns:xlink="http://www.w3.org/1999/xlink">
      <g id="tight-bounds" transform="matrix(1,0,0,1,0.2400000000000091,-0.09999999999999432)">
        <svg viewBox="0 0 395.52 247.2" height="247.2" width="395.52">
          <g>
            <svg></svg>
          </g>
          <g>
            <svg viewBox="0 0 395.52 247.2" height="247.2" width="395.52">
              <g transform="matrix(1,0,0,1,85.98692992860082,47.215199999999996)">
                <svg viewBox="0 0 223.54614014279835 152.7696" height="152.7696" width="223.54614014279835">
                  <g>
                    <svg viewBox="0 0 223.54614014279835 152.7696" height="152.7696" width="223.54614014279835">
                      <g>
                        <svg viewBox="0 0 244.43135999999996 167.04238807613774" height="152.7696" width="223.54614014279835">
                          <g>
                            <svg viewBox="0 0 244.43135999999996 167.04238807613774" height="167.04238807613774" width="244.43135999999996">
                              <g id="textblocktransform">
                                <svg viewBox="0 0 244.43135999999996 167.04238807613774" height="167.04238807613774" width="244.43135999999996" id="textblock">
                                  <g>
                                    <svg viewBox="0 0 244.43135999999996 103.53587079812205" height="103.53587079812205" width="244.43135999999996">
                                      <g transform="matrix(1,0,0,1,0,0)">
                                        <svg width="244.43135999999996" viewBox="2.35 -36.8 95.85000000000001 40.599999999999994" height="103.53587079812205" data-palette-color="#fbfbfb">
                                          <path d="M25.7 3.7L25.7 3.7Q25.6 3.75 25.5 3.75 25.4 3.75 25.1 3.75L25.1 3.75Q24.4 3.75 23.48 3.53 22.55 3.3 21.68 2.98 20.8 2.65 20.18 2.25 19.55 1.85 19.4 1.55L19.4 1.55Q19.35 0.85 19.35 0.1 19.35-0.65 19.35-1.35L19.35-1.35Q19.35-6.95 20.18-13.05 21-19.15 22.9-26.25L22.9-26.25Q23.1-26.95 23.33-28.03 23.55-29.1 23.8-30.35L23.8-30.35Q22.6-29.4 20.95-27.33 19.3-25.25 17.48-22.43 15.65-19.6 13.83-16.23 12-12.85 10.5-9.38 9-5.9 7.93-2.5 6.85 0.9 6.6 3.8L6.6 3.8Q4.2 3.1 3.28 2.4 2.35 1.7 2.35 0.7L2.35 0.7Q2.35-0.2 2.9-1.85 3.45-3.5 4.45-5.75 5.45-8 6.9-10.78 8.35-13.55 10.1-16.75L10.1-16.75Q12.1-20.4 14.03-23.6 15.95-26.8 17.8-29.4 19.65-32 21.43-33.9 23.2-35.8 24.95-36.8L24.95-36.8Q25.65-36.8 26.83-36.45 28-36.1 29.13-35.6 30.25-35.1 31.13-34.58 32-34.05 32.1-33.7L32.1-33.7Q31.4-32.3 30.45-29.5 29.5-26.7 28.53-23.15 27.55-19.6 26.68-15.63 25.8-11.65 25.3-8L25.3-8Q26.45-10.75 27.98-13.73 29.5-16.7 31.2-19.63 32.9-22.55 34.68-25.3 36.45-28.05 38.15-30.33 39.85-32.6 41.33-34.3 42.8-36 43.95-36.8L43.95-36.8Q44.65-36.8 45.83-36.45 47-36.1 48.13-35.6 49.25-35.1 50.13-34.58 51-34.05 51.1-33.7L51.1-33.7Q49.5-30.85 48.3-26.75 47.1-22.65 46.28-18.15 45.45-13.65 45.03-9.22 44.6-4.8 44.6-1.3L44.6-1.3Q44.6-0.15 44.6 1.1 44.6 2.35 44.7 3.7L44.7 3.7Q44 3.7 43.03 3.53 42.05 3.35 41.13 3.05 40.2 2.75 39.45 2.38 38.7 2 38.4 1.55L38.4 1.55Q38.35 0.85 38.35 0.1 38.35-0.65 38.35-1.35L38.35-1.35Q38.35-6.95 39.18-13.05 40-19.15 41.9-26.25L41.9-26.25Q42.1-26.95 42.35-28.15 42.6-29.35 42.85-30.65L42.85-30.65Q41.45-29.95 39.68-27.98 37.9-26 36.08-23.18 34.25-20.35 32.48-16.9 30.7-13.45 29.28-9.88 27.85-6.3 26.88-2.78 25.9 0.75 25.7 3.7ZM72.8 3.7L72.8 3.7Q72.7 3.75 72.6 3.75 72.5 3.75 72.2 3.75L72.2 3.75Q71.5 3.75 70.57 3.53 69.65 3.3 68.77 2.98 67.9 2.65 67.27 2.25 66.65 1.85 66.5 1.55L66.5 1.55Q66.45 0.85 66.45 0.1 66.45-0.65 66.45-1.35L66.45-1.35Q66.45-6.95 67.27-13.05 68.1-19.15 70-26.25L70-26.25Q70.2-26.95 70.42-28.03 70.65-29.1 70.9-30.35L70.9-30.35Q69.7-29.4 68.05-27.33 66.4-25.25 64.57-22.43 62.75-19.6 60.92-16.23 59.1-12.85 57.6-9.38 56.1-5.9 55.02-2.5 53.95 0.9 53.7 3.8L53.7 3.8Q51.3 3.1 50.37 2.4 49.45 1.7 49.45 0.7L49.45 0.7Q49.45-0.2 50-1.85 50.55-3.5 51.55-5.75 52.55-8 54-10.78 55.45-13.55 57.2-16.75L57.2-16.75Q59.2-20.4 61.12-23.6 63.05-26.8 64.9-29.4 66.75-32 68.52-33.9 70.3-35.8 72.05-36.8L72.05-36.8Q72.75-36.8 73.92-36.45 75.1-36.1 76.22-35.6 77.35-35.1 78.22-34.58 79.1-34.05 79.2-33.7L79.2-33.7Q78.5-32.3 77.55-29.5 76.6-26.7 75.62-23.15 74.65-19.6 73.77-15.63 72.9-11.65 72.4-8L72.4-8Q73.55-10.75 75.07-13.73 76.6-16.7 78.3-19.63 80-22.55 81.77-25.3 83.55-28.05 85.25-30.33 86.95-32.6 88.42-34.3 89.9-36 91.05-36.8L91.05-36.8Q91.75-36.8 92.92-36.45 94.1-36.1 95.22-35.6 96.35-35.1 97.22-34.58 98.1-34.05 98.2-33.7L98.2-33.7Q96.6-30.85 95.4-26.75 94.2-22.65 93.37-18.15 92.55-13.65 92.12-9.22 91.7-4.8 91.7-1.3L91.7-1.3Q91.7-0.15 91.7 1.1 91.7 2.35 91.8 3.7L91.8 3.7Q91.1 3.7 90.12 3.53 89.15 3.35 88.22 3.05 87.3 2.75 86.55 2.38 85.8 2 85.5 1.55L85.5 1.55Q85.45 0.85 85.45 0.1 85.45-0.65 85.45-1.35L85.45-1.35Q85.45-6.95 86.27-13.05 87.1-19.15 89-26.25L89-26.25Q89.2-26.95 89.45-28.15 89.7-29.35 89.95-30.65L89.95-30.65Q88.55-29.95 86.77-27.98 85-26 83.17-23.18 81.35-20.35 79.57-16.9 77.8-13.45 76.37-9.88 74.95-6.3 73.97-2.78 73 0.75 72.8 3.7Z" opacity="1" transform="matrix(1,0,0,1,0,0)" fill="#ffffff" class="wordmark-text-0" data-fill-palette-color="primary" id="text-0" filter="url(#shadow)"></path>
                                        </svg>
                                      </g>
                                    </svg>
                                  </g>
                                  <g transform="matrix(1,0,0,1,0,127.9782050326595)">
                                    <svg viewBox="0 0 244.43135999999996 39.064183043478245" height="39.064183043478245" width="244.43135999999996">
                                      <g transform="matrix(1,0,0,1,0,0)">
                                        <svg width="244.43135999999996" viewBox="4.25 -35.9 294.37 47.05" height="39.064183043478245" data-palette-color="#fbfbfb">
                                          <path d="M8.1 0L4.25 0 4.25-34.6 11.2-34.6 21-5.35 30.8-34.6 37.75-34.6 37.75 0 33.9 0 33.9-30.5 33.2-30.5 23.15-1.25 18.85-1.25 8.8-30.5 8.1-30.5 8.1 0ZM63.25-17.45L63.25-17.45 63.25-4.65Q63.4-2.8 66.15-2.45L66.15-2.45 66 0.5Q62.05 0.5 60.05-1.5L60.05-1.5Q55.55 0.5 51.05 0.5L51.05 0.5Q47.6 0.5 45.8-1.45 44-3.4 44-7.05 44-10.7 45.85-12.43 47.7-14.15 51.65-14.55L51.65-14.55 59.5-15.3 59.5-17.45Q59.5-20 58.4-21.1 57.3-22.2 55.4-22.2L55.4-22.2Q51.4-22.2 47.1-21.7L47.1-21.7 45.55-21.55 45.4-24.4Q50.9-25.5 55.15-25.5 59.4-25.5 61.32-23.55 63.25-21.6 63.25-17.45ZM47.85-7.25L47.85-7.25Q47.85-2.65 51.65-2.65L51.65-2.65Q55.05-2.65 58.35-3.8L58.35-3.8 59.5-4.2 59.5-12.45 52.1-11.75Q49.85-11.55 48.85-10.45 47.85-9.35 47.85-7.25ZM70.7-0.65L70.7-0.65 70.7-25 74.39-25 74.39-0.6Q74.39 4 72.75 6.3 71.09 8.6 66.09 11.15L66.09 11.15 64.59 8.25Q68.5 6 69.59 4.42 70.7 2.85 70.7-0.65ZM74.39-30.65L70.7-30.65 70.7-35 74.39-35 74.39-30.65ZM98.59-3.1L98.59-3.1 100.04-3.25 100.14-0.3Q94.44 0.5 90.39 0.5L90.39 0.5Q84.99 0.5 82.74-2.63 80.49-5.75 80.49-12.35L80.49-12.35Q80.49-25.5 90.94-25.5L90.94-25.5Q95.99-25.5 98.49-22.68 100.99-19.85 100.99-13.8L100.99-13.8 100.79-10.95 84.29-10.95Q84.29-6.8 85.79-4.8 87.29-2.8 91.02-2.8 94.74-2.8 98.59-3.1ZM84.24-13.95L97.24-13.95Q97.24-18.55 95.77-20.45 94.29-22.35 90.97-22.35 87.64-22.35 85.97-20.35 84.29-18.35 84.24-13.95L84.24-13.95ZM114.69-22.15L114.69-22.15Q109.24-22.15 109.24-18.35L109.24-18.35Q109.24-16.6 110.49-15.88 111.74-15.15 116.19-14.38 120.64-13.6 122.49-12.2 124.34-10.8 124.34-6.95 124.34-3.1 121.87-1.3 119.39 0.5 114.64 0.5L114.64 0.5Q111.54 0.5 107.34-0.2L107.34-0.2 105.84-0.45 106.04-3.7Q111.74-2.85 114.64-2.85 117.54-2.85 119.07-3.78 120.59-4.7 120.59-6.88 120.59-9.05 119.29-9.83 117.99-10.6 113.59-11.3 109.19-12 107.34-13.35 105.49-14.7 105.49-18.35 105.49-22 108.07-23.75 110.64-25.5 114.49-25.5L114.49-25.5Q117.54-25.5 122.14-24.8L122.14-24.8 123.54-24.55 123.44-21.35Q117.89-22.15 114.69-22.15ZM143.04-25L143.04-21.75 135.09-21.75 135.09-9.8Q135.09-5.5 135.71-4.15 136.34-2.8 138.69-2.8L138.69-2.8 143.14-3.1 143.39 0Q140.04 0.55 138.29 0.55L138.29 0.55Q134.39 0.55 132.89-1.35 131.39-3.25 131.39-8.6L131.39-8.6 131.39-21.75 127.84-21.75 127.84-25 131.39-25 131.39-32.65 135.09-32.65 135.09-25 143.04-25ZM151.39 0L147.64 0 147.64-25 151.39-25 151.39 0ZM151.39-30.65L147.64-30.65 147.64-35 151.39-35 151.39-30.65ZM167.93-25.5L167.93-25.5Q169.58-25.5 173.53-24.9L173.53-24.9 174.73-24.75 174.58-21.7Q170.58-22.15 168.68-22.15L168.68-22.15Q164.43-22.15 162.91-20.13 161.38-18.1 161.38-12.63 161.38-7.15 162.81-5 164.23-2.85 168.73-2.85L168.73-2.85 174.63-3.3 174.78-0.2Q170.13 0.5 167.83 0.5L167.83 0.5Q161.98 0.5 159.76-2.5 157.53-5.5 157.53-12.63 157.53-19.75 159.93-22.63 162.33-25.5 167.93-25.5ZM195.88 0L192.03 0 192.03-34.6 198.98-34.6 208.78-5.35 218.58-34.6 225.53-34.6 225.53 0 221.68 0 221.68-30.5 220.98-30.5 210.93-1.25 206.63-1.25 196.58-30.5 195.88-30.5 195.88 0ZM237.13 0L233.38 0 233.38-25 237.13-25 237.13 0ZM237.13-30.65L233.38-30.65 233.38-35 237.13-35 237.13-30.65ZM248.37 0L244.62 0 244.62-35.9 248.37-35.9 248.37 0ZM272.87-3.1L272.87-3.1 274.32-3.25 274.42-0.3Q268.72 0.5 264.67 0.5L264.67 0.5Q259.27 0.5 257.02-2.63 254.77-5.75 254.77-12.35L254.77-12.35Q254.77-25.5 265.22-25.5L265.22-25.5Q270.27-25.5 272.77-22.68 275.27-19.85 275.27-13.8L275.27-13.8 275.07-10.95 258.57-10.95Q258.57-6.8 260.07-4.8 261.57-2.8 265.3-2.8 269.02-2.8 272.87-3.1ZM258.52-13.95L271.52-13.95Q271.52-18.55 270.05-20.45 268.57-22.35 265.25-22.35 261.92-22.35 260.25-20.35 258.57-18.35 258.52-13.95L258.52-13.95ZM288.97-22.15L288.97-22.15Q283.52-22.15 283.52-18.35L283.52-18.35Q283.52-16.6 284.77-15.88 286.02-15.15 290.47-14.38 294.92-13.6 296.77-12.2 298.62-10.8 298.62-6.95 298.62-3.1 296.14-1.3 293.67 0.5 288.92 0.5L288.92 0.5Q285.82 0.5 281.62-0.2L281.62-0.2 280.12-0.45 280.32-3.7Q286.02-2.85 288.92-2.85 291.82-2.85 293.34-3.78 294.87-4.7 294.87-6.88 294.87-9.05 293.57-9.83 292.27-10.6 287.87-11.3 283.47-12 281.62-13.35 279.77-14.7 279.77-18.35 279.77-22 282.34-23.75 284.92-25.5 288.77-25.5L288.77-25.5Q291.82-25.5 296.42-24.8L296.42-24.8 297.82-24.55 297.72-21.35Q292.17-22.15 288.97-22.15Z" opacity="1" transform="matrix(1,0,0,1,0,0)" fill="#ffffff" class="slogan-text-1" data-fill-palette-color="secondary" id="text-1" filter="url(#shadow)"></path>
                                        </svg>
                                      </g>
                                    </svg>
                                  </g>
                                </svg>
                              </g>
                            </svg>
                          </g>
                        </svg>
                      </g>
                    </svg>
                  </g>
                </svg>
              </g>
              <g>
                <path d="M235.373 0c68.262 0 123.6 55.338 123.6 123.6 0 68.262-55.338 123.6-123.6 123.6-34.048 0-64.881-13.767-87.235-36.038h6.162c21.285 19.717 49.771 31.769 81.073 31.768 65.904 0 119.33-53.426 119.33-119.33 0-65.904-53.426-119.33-119.33-119.33-31.302 0-59.788 12.052-81.073 31.768l-6.162 0c22.354-22.271 53.187-36.038 87.235-36.038z" fill="#ffffff" data-fill-palette-color="tertiary" filter="url(#shadow)"></path>
              </g>
            </svg>
          </g>
          <defs></defs>
        </svg>
        <rect width="395.52" height="247.2" fill="none"></rect>
      </g>
    </svg>
  </g>
</svg>