<svg xmlns="http://www.w3.org/2000/svg" xmlns:xlink="http://www.w3.org/1999/xlink" width="373" zoomAndPan="magnify" viewBox="0 0 279.75 179.249993" height="239" preserveAspectRatio="xMidYMid meet" version="1.0"><defs><g/></defs><g fill="#1e1e1e" fill-opacity="0.4"><g transform="translate(50.670454, 123.9854)"><g><path d="M 49.09375 7.0625 C 48.957031 7.125 48.828125 7.15625 48.703125 7.15625 C 48.578125 7.15625 48.320312 7.15625 47.9375 7.15625 C 47.050781 7.15625 46.019531 7.007812 44.84375 6.71875 C 43.664062 6.4375 42.519531 6.085938 41.40625 5.671875 C 40.289062 5.265625 39.332031 4.804688 38.53125 4.296875 C 37.738281 3.785156 37.242188 3.335938 37.046875 2.953125 C 36.984375 2.066406 36.953125 1.144531 36.953125 0.1875 C 36.953125 -0.757812 36.953125 -1.679688 36.953125 -2.578125 C 36.953125 -9.710938 37.476562 -17.160156 38.53125 -24.921875 C 39.582031 -32.691406 41.316406 -41.097656 43.734375 -50.140625 C 43.992188 -51.023438 44.265625 -52.148438 44.546875 -53.515625 C 44.835938 -54.890625 45.140625 -56.375 45.453125 -57.96875 C 43.929688 -56.757812 42.117188 -54.832031 40.015625 -52.1875 C 37.910156 -49.550781 35.695312 -46.429688 33.375 -42.828125 C 31.050781 -39.234375 28.726562 -35.285156 26.40625 -30.984375 C 24.082031 -26.691406 21.960938 -22.332031 20.046875 -17.90625 C 18.140625 -13.476562 16.5 -9.097656 15.125 -4.765625 C 13.757812 -0.441406 12.921875 3.566406 12.609375 7.265625 C 9.546875 6.367188 7.425781 5.472656 6.25 4.578125 C 5.070312 3.691406 4.484375 2.613281 4.484375 1.34375 C 4.484375 0.195312 4.832031 -1.425781 5.53125 -3.53125 C 6.238281 -5.632812 7.226562 -8.117188 8.5 -10.984375 C 9.769531 -13.847656 11.328125 -17.046875 13.171875 -20.578125 C 15.023438 -24.109375 17.066406 -27.914062 19.296875 -32 C 21.835938 -36.644531 24.332031 -41.003906 26.78125 -45.078125 C 29.238281 -49.148438 31.644531 -52.84375 34 -56.15625 C 36.351562 -59.46875 38.660156 -62.332031 40.921875 -64.75 C 43.179688 -67.164062 45.425781 -69.007812 47.65625 -70.28125 C 48.539062 -70.28125 49.734375 -70.054688 51.234375 -69.609375 C 52.734375 -69.171875 54.195312 -68.632812 55.625 -68 C 57.0625 -67.363281 58.335938 -66.707031 59.453125 -66.03125 C 60.566406 -65.363281 61.1875 -64.804688 61.3125 -64.359375 C 60.414062 -62.578125 59.363281 -59.90625 58.15625 -56.34375 C 56.945312 -52.78125 55.722656 -48.738281 54.484375 -44.21875 C 53.242188 -39.695312 52.066406 -34.90625 50.953125 -29.84375 C 49.835938 -24.78125 48.960938 -19.925781 48.328125 -15.28125 C 49.785156 -18.78125 51.484375 -22.421875 53.421875 -26.203125 C 55.367188 -29.992188 57.425781 -33.753906 59.59375 -37.484375 C 61.757812 -41.210938 63.972656 -44.828125 66.234375 -48.328125 C 68.492188 -51.828125 70.703125 -55.023438 72.859375 -57.921875 C 75.023438 -60.816406 77.046875 -63.347656 78.921875 -65.515625 C 80.804688 -67.679688 82.476562 -69.269531 83.9375 -70.28125 C 84.832031 -70.28125 86.023438 -70.054688 87.515625 -69.609375 C 89.015625 -69.171875 90.476562 -68.632812 91.90625 -68 C 93.34375 -67.363281 94.617188 -66.707031 95.734375 -66.03125 C 96.847656 -65.363281 97.46875 -64.804688 97.59375 -64.359375 C 95.5625 -60.734375 93.78125 -56.3125 92.25 -51.09375 C 90.726562 -45.875 89.441406 -40.398438 88.390625 -34.671875 C 87.335938 -28.941406 86.539062 -23.257812 86 -17.625 C 85.457031 -11.988281 85.1875 -6.941406 85.1875 -2.484375 C 85.1875 -1.015625 85.1875 0.507812 85.1875 2.09375 C 85.1875 3.6875 85.25 5.34375 85.375 7.0625 C 84.488281 7.0625 83.421875 6.953125 82.171875 6.734375 C 80.929688 6.515625 79.722656 6.210938 78.546875 5.828125 C 77.367188 5.441406 76.300781 5.007812 75.34375 4.53125 C 74.394531 4.050781 73.726562 3.523438 73.34375 2.953125 C 73.28125 2.066406 73.25 1.144531 73.25 0.1875 C 73.25 -0.757812 73.25 -1.679688 73.25 -2.578125 C 73.25 -9.710938 73.773438 -17.160156 74.828125 -24.921875 C 75.878906 -32.691406 77.613281 -41.097656 80.03125 -50.140625 C 80.28125 -51.023438 80.5625 -52.234375 80.875 -53.765625 C 81.195312 -55.296875 81.519531 -56.890625 81.84375 -58.546875 C 80.0625 -57.648438 78.039062 -55.941406 75.78125 -53.421875 C 73.519531 -50.910156 71.226562 -47.859375 68.90625 -44.265625 C 66.582031 -40.671875 64.289062 -36.675781 62.03125 -32.28125 C 59.769531 -27.882812 57.726562 -23.410156 55.90625 -18.859375 C 54.09375 -14.304688 52.566406 -9.785156 51.328125 -5.296875 C 50.085938 -0.804688 49.34375 3.3125 49.09375 7.0625 Z M 49.09375 7.0625 "/></g></g></g><g fill="#1e1e1e" fill-opacity="0.4"><g transform="translate(140.637727, 123.9854)"><g><path d="M 49.09375 7.0625 C 48.957031 7.125 48.828125 7.15625 48.703125 7.15625 C 48.578125 7.15625 48.320312 7.15625 47.9375 7.15625 C 47.050781 7.15625 46.019531 7.007812 44.84375 6.71875 C 43.664062 6.4375 42.519531 6.085938 41.40625 5.671875 C 40.289062 5.265625 39.332031 4.804688 38.53125 4.296875 C 37.738281 3.785156 37.242188 3.335938 37.046875 2.953125 C 36.984375 2.066406 36.953125 1.144531 36.953125 0.1875 C 36.953125 -0.757812 36.953125 -1.679688 36.953125 -2.578125 C 36.953125 -9.710938 37.476562 -17.160156 38.53125 -24.921875 C 39.582031 -32.691406 41.316406 -41.097656 43.734375 -50.140625 C 43.992188 -51.023438 44.265625 -52.148438 44.546875 -53.515625 C 44.835938 -54.890625 45.140625 -56.375 45.453125 -57.96875 C 43.929688 -56.757812 42.117188 -54.832031 40.015625 -52.1875 C 37.910156 -49.550781 35.695312 -46.429688 33.375 -42.828125 C 31.050781 -39.234375 28.726562 -35.285156 26.40625 -30.984375 C 24.082031 -26.691406 21.960938 -22.332031 20.046875 -17.90625 C 18.140625 -13.476562 16.5 -9.097656 15.125 -4.765625 C 13.757812 -0.441406 12.921875 3.566406 12.609375 7.265625 C 9.546875 6.367188 7.425781 5.472656 6.25 4.578125 C 5.070312 3.691406 4.484375 2.613281 4.484375 1.34375 C 4.484375 0.195312 4.832031 -1.425781 5.53125 -3.53125 C 6.238281 -5.632812 7.226562 -8.117188 8.5 -10.984375 C 9.769531 -13.847656 11.328125 -17.046875 13.171875 -20.578125 C 15.023438 -24.109375 17.066406 -27.914062 19.296875 -32 C 21.835938 -36.644531 24.332031 -41.003906 26.78125 -45.078125 C 29.238281 -49.148438 31.644531 -52.84375 34 -56.15625 C 36.351562 -59.46875 38.660156 -62.332031 40.921875 -64.75 C 43.179688 -67.164062 45.425781 -69.007812 47.65625 -70.28125 C 48.539062 -70.28125 49.734375 -70.054688 51.234375 -69.609375 C 52.734375 -69.171875 54.195312 -68.632812 55.625 -68 C 57.0625 -67.363281 58.335938 -66.707031 59.453125 -66.03125 C 60.566406 -65.363281 61.1875 -64.804688 61.3125 -64.359375 C 60.414062 -62.578125 59.363281 -59.90625 58.15625 -56.34375 C 56.945312 -52.78125 55.722656 -48.738281 54.484375 -44.21875 C 53.242188 -39.695312 52.066406 -34.90625 50.953125 -29.84375 C 49.835938 -24.78125 48.960938 -19.925781 48.328125 -15.28125 C 49.785156 -18.78125 51.484375 -22.421875 53.421875 -26.203125 C 55.367188 -29.992188 57.425781 -33.753906 59.59375 -37.484375 C 61.757812 -41.210938 63.972656 -44.828125 66.234375 -48.328125 C 68.492188 -51.828125 70.703125 -55.023438 72.859375 -57.921875 C 75.023438 -60.816406 77.046875 -63.347656 78.921875 -65.515625 C 80.804688 -67.679688 82.476562 -69.269531 83.9375 -70.28125 C 84.832031 -70.28125 86.023438 -70.054688 87.515625 -69.609375 C 89.015625 -69.171875 90.476562 -68.632812 91.90625 -68 C 93.34375 -67.363281 94.617188 -66.707031 95.734375 -66.03125 C 96.847656 -65.363281 97.46875 -64.804688 97.59375 -64.359375 C 95.5625 -60.734375 93.78125 -56.3125 92.25 -51.09375 C 90.726562 -45.875 89.441406 -40.398438 88.390625 -34.671875 C 87.335938 -28.941406 86.539062 -23.257812 86 -17.625 C 85.457031 -11.988281 85.1875 -6.941406 85.1875 -2.484375 C 85.1875 -1.015625 85.1875 0.507812 85.1875 2.09375 C 85.1875 3.6875 85.25 5.34375 85.375 7.0625 C 84.488281 7.0625 83.421875 6.953125 82.171875 6.734375 C 80.929688 6.515625 79.722656 6.210938 78.546875 5.828125 C 77.367188 5.441406 76.300781 5.007812 75.34375 4.53125 C 74.394531 4.050781 73.726562 3.523438 73.34375 2.953125 C 73.28125 2.066406 73.25 1.144531 73.25 0.1875 C 73.25 -0.757812 73.25 -1.679688 73.25 -2.578125 C 73.25 -9.710938 73.773438 -17.160156 74.828125 -24.921875 C 75.878906 -32.691406 77.613281 -41.097656 80.03125 -50.140625 C 80.28125 -51.023438 80.5625 -52.234375 80.875 -53.765625 C 81.195312 -55.296875 81.519531 -56.890625 81.84375 -58.546875 C 80.0625 -57.648438 78.039062 -55.941406 75.78125 -53.421875 C 73.519531 -50.910156 71.226562 -47.859375 68.90625 -44.265625 C 66.582031 -40.671875 64.289062 -36.675781 62.03125 -32.28125 C 59.769531 -27.882812 57.726562 -23.410156 55.90625 -18.859375 C 54.09375 -14.304688 52.566406 -9.785156 51.328125 -5.296875 C 50.085938 -0.804688 49.34375 3.3125 49.09375 7.0625 Z M 49.09375 7.0625 "/></g></g></g><g fill="#ffffff" fill-opacity="1"><g transform="translate(49.404202, 122.719148)"><g><path d="M 49.09375 7.0625 C 48.957031 7.125 48.828125 7.15625 48.703125 7.15625 C 48.578125 7.15625 48.320312 7.15625 47.9375 7.15625 C 47.050781 7.15625 46.019531 7.007812 44.84375 6.71875 C 43.664062 6.4375 42.519531 6.085938 41.40625 5.671875 C 40.289062 5.265625 39.332031 4.804688 38.53125 4.296875 C 37.738281 3.785156 37.242188 3.335938 37.046875 2.953125 C 36.984375 2.066406 36.953125 1.144531 36.953125 0.1875 C 36.953125 -0.757812 36.953125 -1.679688 36.953125 -2.578125 C 36.953125 -9.710938 37.476562 -17.160156 38.53125 -24.921875 C 39.582031 -32.691406 41.316406 -41.097656 43.734375 -50.140625 C 43.992188 -51.023438 44.265625 -52.148438 44.546875 -53.515625 C 44.835938 -54.890625 45.140625 -56.375 45.453125 -57.96875 C 43.929688 -56.757812 42.117188 -54.832031 40.015625 -52.1875 C 37.910156 -49.550781 35.695312 -46.429688 33.375 -42.828125 C 31.050781 -39.234375 28.726562 -35.285156 26.40625 -30.984375 C 24.082031 -26.691406 21.960938 -22.332031 20.046875 -17.90625 C 18.140625 -13.476562 16.5 -9.097656 15.125 -4.765625 C 13.757812 -0.441406 12.921875 3.566406 12.609375 7.265625 C 9.546875 6.367188 7.425781 5.472656 6.25 4.578125 C 5.070312 3.691406 4.484375 2.613281 4.484375 1.34375 C 4.484375 0.195312 4.832031 -1.425781 5.53125 -3.53125 C 6.238281 -5.632812 7.226562 -8.117188 8.5 -10.984375 C 9.769531 -13.847656 11.328125 -17.046875 13.171875 -20.578125 C 15.023438 -24.109375 17.066406 -27.914062 19.296875 -32 C 21.835938 -36.644531 24.332031 -41.003906 26.78125 -45.078125 C 29.238281 -49.148438 31.644531 -52.84375 34 -56.15625 C 36.351562 -59.46875 38.660156 -62.332031 40.921875 -64.75 C 43.179688 -67.164062 45.425781 -69.007812 47.65625 -70.28125 C 48.539062 -70.28125 49.734375 -70.054688 51.234375 -69.609375 C 52.734375 -69.171875 54.195312 -68.632812 55.625 -68 C 57.0625 -67.363281 58.335938 -66.707031 59.453125 -66.03125 C 60.566406 -65.363281 61.1875 -64.804688 61.3125 -64.359375 C 60.414062 -62.578125 59.363281 -59.90625 58.15625 -56.34375 C 56.945312 -52.78125 55.722656 -48.738281 54.484375 -44.21875 C 53.242188 -39.695312 52.066406 -34.90625 50.953125 -29.84375 C 49.835938 -24.78125 48.960938 -19.925781 48.328125 -15.28125 C 49.785156 -18.78125 51.484375 -22.421875 53.421875 -26.203125 C 55.367188 -29.992188 57.425781 -33.753906 59.59375 -37.484375 C 61.757812 -41.210938 63.972656 -44.828125 66.234375 -48.328125 C 68.492188 -51.828125 70.703125 -55.023438 72.859375 -57.921875 C 75.023438 -60.816406 77.046875 -63.347656 78.921875 -65.515625 C 80.804688 -67.679688 82.476562 -69.269531 83.9375 -70.28125 C 84.832031 -70.28125 86.023438 -70.054688 87.515625 -69.609375 C 89.015625 -69.171875 90.476562 -68.632812 91.90625 -68 C 93.34375 -67.363281 94.617188 -66.707031 95.734375 -66.03125 C 96.847656 -65.363281 97.46875 -64.804688 97.59375 -64.359375 C 95.5625 -60.734375 93.78125 -56.3125 92.25 -51.09375 C 90.726562 -45.875 89.441406 -40.398438 88.390625 -34.671875 C 87.335938 -28.941406 86.539062 -23.257812 86 -17.625 C 85.457031 -11.988281 85.1875 -6.941406 85.1875 -2.484375 C 85.1875 -1.015625 85.1875 0.507812 85.1875 2.09375 C 85.1875 3.6875 85.25 5.34375 85.375 7.0625 C 84.488281 7.0625 83.421875 6.953125 82.171875 6.734375 C 80.929688 6.515625 79.722656 6.210938 78.546875 5.828125 C 77.367188 5.441406 76.300781 5.007812 75.34375 4.53125 C 74.394531 4.050781 73.726562 3.523438 73.34375 2.953125 C 73.28125 2.066406 73.25 1.144531 73.25 0.1875 C 73.25 -0.757812 73.25 -1.679688 73.25 -2.578125 C 73.25 -9.710938 73.773438 -17.160156 74.828125 -24.921875 C 75.878906 -32.691406 77.613281 -41.097656 80.03125 -50.140625 C 80.28125 -51.023438 80.5625 -52.234375 80.875 -53.765625 C 81.195312 -55.296875 81.519531 -56.890625 81.84375 -58.546875 C 80.0625 -57.648438 78.039062 -55.941406 75.78125 -53.421875 C 73.519531 -50.910156 71.226562 -47.859375 68.90625 -44.265625 C 66.582031 -40.671875 64.289062 -36.675781 62.03125 -32.28125 C 59.769531 -27.882812 57.726562 -23.410156 55.90625 -18.859375 C 54.09375 -14.304688 52.566406 -9.785156 51.328125 -5.296875 C 50.085938 -0.804688 49.34375 3.3125 49.09375 7.0625 Z M 49.09375 7.0625 "/></g></g></g><g fill="#ffffff" fill-opacity="1"><g transform="translate(139.371475, 122.719148)"><g><path d="M 49.09375 7.0625 C 48.957031 7.125 48.828125 7.15625 48.703125 7.15625 C 48.578125 7.15625 48.320312 7.15625 47.9375 7.15625 C 47.050781 7.15625 46.019531 7.007812 44.84375 6.71875 C 43.664062 6.4375 42.519531 6.085938 41.40625 5.671875 C 40.289062 5.265625 39.332031 4.804688 38.53125 4.296875 C 37.738281 3.785156 37.242188 3.335938 37.046875 2.953125 C 36.984375 2.066406 36.953125 1.144531 36.953125 0.1875 C 36.953125 -0.757812 36.953125 -1.679688 36.953125 -2.578125 C 36.953125 -9.710938 37.476562 -17.160156 38.53125 -24.921875 C 39.582031 -32.691406 41.316406 -41.097656 43.734375 -50.140625 C 43.992188 -51.023438 44.265625 -52.148438 44.546875 -53.515625 C 44.835938 -54.890625 45.140625 -56.375 45.453125 -57.96875 C 43.929688 -56.757812 42.117188 -54.832031 40.015625 -52.1875 C 37.910156 -49.550781 35.695312 -46.429688 33.375 -42.828125 C 31.050781 -39.234375 28.726562 -35.285156 26.40625 -30.984375 C 24.082031 -26.691406 21.960938 -22.332031 20.046875 -17.90625 C 18.140625 -13.476562 16.5 -9.097656 15.125 -4.765625 C 13.757812 -0.441406 12.921875 3.566406 12.609375 7.265625 C 9.546875 6.367188 7.425781 5.472656 6.25 4.578125 C 5.070312 3.691406 4.484375 2.613281 4.484375 1.34375 C 4.484375 0.195312 4.832031 -1.425781 5.53125 -3.53125 C 6.238281 -5.632812 7.226562 -8.117188 8.5 -10.984375 C 9.769531 -13.847656 11.328125 -17.046875 13.171875 -20.578125 C 15.023438 -24.109375 17.066406 -27.914062 19.296875 -32 C 21.835938 -36.644531 24.332031 -41.003906 26.78125 -45.078125 C 29.238281 -49.148438 31.644531 -52.84375 34 -56.15625 C 36.351562 -59.46875 38.660156 -62.332031 40.921875 -64.75 C 43.179688 -67.164062 45.425781 -69.007812 47.65625 -70.28125 C 48.539062 -70.28125 49.734375 -70.054688 51.234375 -69.609375 C 52.734375 -69.171875 54.195312 -68.632812 55.625 -68 C 57.0625 -67.363281 58.335938 -66.707031 59.453125 -66.03125 C 60.566406 -65.363281 61.1875 -64.804688 61.3125 -64.359375 C 60.414062 -62.578125 59.363281 -59.90625 58.15625 -56.34375 C 56.945312 -52.78125 55.722656 -48.738281 54.484375 -44.21875 C 53.242188 -39.695312 52.066406 -34.90625 50.953125 -29.84375 C 49.835938 -24.78125 48.960938 -19.925781 48.328125 -15.28125 C 49.785156 -18.78125 51.484375 -22.421875 53.421875 -26.203125 C 55.367188 -29.992188 57.425781 -33.753906 59.59375 -37.484375 C 61.757812 -41.210938 63.972656 -44.828125 66.234375 -48.328125 C 68.492188 -51.828125 70.703125 -55.023438 72.859375 -57.921875 C 75.023438 -60.816406 77.046875 -63.347656 78.921875 -65.515625 C 80.804688 -67.679688 82.476562 -69.269531 83.9375 -70.28125 C 84.832031 -70.28125 86.023438 -70.054688 87.515625 -69.609375 C 89.015625 -69.171875 90.476562 -68.632812 91.90625 -68 C 93.34375 -67.363281 94.617188 -66.707031 95.734375 -66.03125 C 96.847656 -65.363281 97.46875 -64.804688 97.59375 -64.359375 C 95.5625 -60.734375 93.78125 -56.3125 92.25 -51.09375 C 90.726562 -45.875 89.441406 -40.398438 88.390625 -34.671875 C 87.335938 -28.941406 86.539062 -23.257812 86 -17.625 C 85.457031 -11.988281 85.1875 -6.941406 85.1875 -2.484375 C 85.1875 -1.015625 85.1875 0.507812 85.1875 2.09375 C 85.1875 3.6875 85.25 5.34375 85.375 7.0625 C 84.488281 7.0625 83.421875 6.953125 82.171875 6.734375 C 80.929688 6.515625 79.722656 6.210938 78.546875 5.828125 C 77.367188 5.441406 76.300781 5.007812 75.34375 4.53125 C 74.394531 4.050781 73.726562 3.523438 73.34375 2.953125 C 73.28125 2.066406 73.25 1.144531 73.25 0.1875 C 73.25 -0.757812 73.25 -1.679688 73.25 -2.578125 C 73.25 -9.710938 73.773438 -17.160156 74.828125 -24.921875 C 75.878906 -32.691406 77.613281 -41.097656 80.03125 -50.140625 C 80.28125 -51.023438 80.5625 -52.234375 80.875 -53.765625 C 81.195312 -55.296875 81.519531 -56.890625 81.84375 -58.546875 C 80.0625 -57.648438 78.039062 -55.941406 75.78125 -53.421875 C 73.519531 -50.910156 71.226562 -47.859375 68.90625 -44.265625 C 66.582031 -40.671875 64.289062 -36.675781 62.03125 -32.28125 C 59.769531 -27.882812 57.726562 -23.410156 55.90625 -18.859375 C 54.09375 -14.304688 52.566406 -9.785156 51.328125 -5.296875 C 50.085938 -0.804688 49.34375 3.3125 49.09375 7.0625 Z M 49.09375 7.0625 "/></g></g></g><g fill="#1e1e1e" fill-opacity="0.4"><g transform="translate(66.793331, 160.420583)"><g><path d="M 10.34375 -9.234375 L 7.359375 -2.515625 L 5.859375 -2.515625 L 2.875 -9.234375 L 2.875 0 L 1.4375 0 L 1.4375 -11.15625 L 3.546875 -11.15625 L 6.640625 -4.09375 L 9.6875 -11.15625 L 11.859375 -11.15625 L 11.859375 0 L 10.34375 0 Z M 10.34375 -9.234375 "/></g></g></g><g fill="#1e1e1e" fill-opacity="0.4"><g transform="translate(81.942741, 160.420583)"><g><path d="M 0.15625 -0.40625 L 4.53125 -11.15625 L 6.1875 -11.15625 L 10.484375 -0.40625 L 9.09375 0.15625 L 7.859375 -3.03125 L 2.6875 -3.03125 L 1.453125 0.125 Z M 3.171875 -4.296875 L 7.359375 -4.296875 L 5.28125 -9.65625 Z M 3.171875 -4.296875 "/></g></g></g><g fill="#1e1e1e" fill-opacity="0.4"><g transform="translate(94.447844, 160.420583)"><g><path d="M 4.0625 -11.15625 L 5.578125 -11.15625 L 5.578125 -3.6875 C 5.578125 -3 5.5 -2.410156 5.34375 -1.921875 C 5.195312 -1.441406 4.984375 -1.039062 4.703125 -0.71875 C 4.429688 -0.40625 4.101562 -0.175781 3.71875 -0.03125 C 3.34375 0.113281 2.921875 0.1875 2.453125 0.1875 C 1.960938 0.1875 1.503906 0.101562 1.078125 -0.0625 C 0.648438 -0.226562 0.289062 -0.453125 0 -0.734375 L 0.734375 -1.890625 C 0.941406 -1.671875 1.191406 -1.484375 1.484375 -1.328125 C 1.785156 -1.179688 2.09375 -1.109375 2.40625 -1.109375 C 2.914062 -1.109375 3.316406 -1.289062 3.609375 -1.65625 C 3.910156 -2.019531 4.0625 -2.640625 4.0625 -3.515625 Z M 4.0625 -11.15625 "/></g></g></g><g fill="#1e1e1e" fill-opacity="0.4"><g transform="translate(103.161728, 160.420583)"><g><path d="M 1.4375 -11.15625 L 8.125 -11.15625 L 8.125 -9.84375 L 2.953125 -9.84375 L 2.953125 -6.453125 L 7.40625 -6.453125 L 7.40625 -5.1875 L 2.953125 -5.1875 L 2.953125 -1.3125 L 8.125 -1.3125 L 8.125 0 L 1.4375 0 Z M 1.4375 -11.15625 "/></g></g></g><g fill="#1e1e1e" fill-opacity="0.4"><g transform="translate(113.8668, 160.420583)"><g><path d="M 2.34375 -5.59375 C 2.34375 -4.925781 2.429688 -4.316406 2.609375 -3.765625 C 2.785156 -3.222656 3.03125 -2.753906 3.34375 -2.359375 C 3.65625 -1.960938 4.023438 -1.65625 4.453125 -1.4375 C 4.890625 -1.226562 5.367188 -1.125 5.890625 -1.125 C 6.410156 -1.125 6.863281 -1.1875 7.25 -1.3125 C 7.632812 -1.4375 8.007812 -1.601562 8.375 -1.8125 L 8.828125 -0.5625 C 8.429688 -0.34375 7.976562 -0.160156 7.46875 -0.015625 C 6.96875 0.117188 6.382812 0.1875 5.71875 0.1875 C 4.988281 0.1875 4.320312 0.0546875 3.71875 -0.203125 C 3.125 -0.472656 2.609375 -0.851562 2.171875 -1.34375 C 1.734375 -1.84375 1.394531 -2.441406 1.15625 -3.140625 C 0.914062 -3.847656 0.796875 -4.644531 0.796875 -5.53125 C 0.796875 -6.382812 0.914062 -7.164062 1.15625 -7.875 C 1.394531 -8.582031 1.738281 -9.191406 2.1875 -9.703125 C 2.632812 -10.222656 3.171875 -10.625 3.796875 -10.90625 C 4.429688 -11.195312 5.132812 -11.34375 5.90625 -11.34375 C 6.445312 -11.34375 6.929688 -11.289062 7.359375 -11.1875 C 7.796875 -11.09375 8.207031 -10.957031 8.59375 -10.78125 L 8.125 -9.5 C 7.800781 -9.65625 7.460938 -9.78125 7.109375 -9.875 C 6.765625 -9.976562 6.359375 -10.03125 5.890625 -10.03125 C 5.378906 -10.03125 4.90625 -9.929688 4.46875 -9.734375 C 4.039062 -9.535156 3.664062 -9.242188 3.34375 -8.859375 C 3.03125 -8.472656 2.785156 -8.003906 2.609375 -7.453125 C 2.429688 -6.910156 2.34375 -6.289062 2.34375 -5.59375 Z M 2.34375 -5.59375 "/></g></g></g><g fill="#1e1e1e" fill-opacity="0.4"><g transform="translate(125.193125, 160.420583)"><g><path d="M 0.15625 -11.15625 L 8.53125 -11.15625 L 8.53125 -9.8125 L 5.09375 -9.8125 L 5.09375 0 L 3.59375 0 L 3.59375 -9.8125 L 0.15625 -9.8125 Z M 0.15625 -11.15625 "/></g></g></g><g fill="#1e1e1e" fill-opacity="0.4"><g transform="translate(135.738899, 160.420583)"><g><path d="M 1.4375 0 L 1.4375 -11.15625 L 2.953125 -11.15625 L 2.953125 0 Z M 1.4375 0 "/></g></g></g><g fill="#1e1e1e" fill-opacity="0.4"><g transform="translate(141.983714, 160.420583)"><g><path d="M 2.34375 -5.59375 C 2.34375 -4.925781 2.429688 -4.316406 2.609375 -3.765625 C 2.785156 -3.222656 3.03125 -2.753906 3.34375 -2.359375 C 3.65625 -1.960938 4.023438 -1.65625 4.453125 -1.4375 C 4.890625 -1.226562 5.367188 -1.125 5.890625 -1.125 C 6.410156 -1.125 6.863281 -1.1875 7.25 -1.3125 C 7.632812 -1.4375 8.007812 -1.601562 8.375 -1.8125 L 8.828125 -0.5625 C 8.429688 -0.34375 7.976562 -0.160156 7.46875 -0.015625 C 6.96875 0.117188 6.382812 0.1875 5.71875 0.1875 C 4.988281 0.1875 4.320312 0.0546875 3.71875 -0.203125 C 3.125 -0.472656 2.609375 -0.851562 2.171875 -1.34375 C 1.734375 -1.84375 1.394531 -2.441406 1.15625 -3.140625 C 0.914062 -3.847656 0.796875 -4.644531 0.796875 -5.53125 C 0.796875 -6.382812 0.914062 -7.164062 1.15625 -7.875 C 1.394531 -8.582031 1.738281 -9.191406 2.1875 -9.703125 C 2.632812 -10.222656 3.171875 -10.625 3.796875 -10.90625 C 4.429688 -11.195312 5.132812 -11.34375 5.90625 -11.34375 C 6.445312 -11.34375 6.929688 -11.289062 7.359375 -11.1875 C 7.796875 -11.09375 8.207031 -10.957031 8.59375 -10.78125 L 8.125 -9.5 C 7.800781 -9.65625 7.460938 -9.78125 7.109375 -9.875 C 6.765625 -9.976562 6.359375 -10.03125 5.890625 -10.03125 C 5.378906 -10.03125 4.90625 -9.929688 4.46875 -9.734375 C 4.039062 -9.535156 3.664062 -9.242188 3.34375 -8.859375 C 3.03125 -8.472656 2.785156 -8.003906 2.609375 -7.453125 C 2.429688 -6.910156 2.34375 -6.289062 2.34375 -5.59375 Z M 2.34375 -5.59375 "/></g></g></g><g fill="#1e1e1e" fill-opacity="0.4"><g transform="translate(153.310039, 160.420583)"><g/></g></g><g fill="#1e1e1e" fill-opacity="0.4"><g transform="translate(159.95309, 160.420583)"><g><path d="M 10.34375 -9.234375 L 7.359375 -2.515625 L 5.859375 -2.515625 L 2.875 -9.234375 L 2.875 0 L 1.4375 0 L 1.4375 -11.15625 L 3.546875 -11.15625 L 6.640625 -4.09375 L 9.6875 -11.15625 L 11.859375 -11.15625 L 11.859375 0 L 10.34375 0 Z M 10.34375 -9.234375 "/></g></g></g><g fill="#1e1e1e" fill-opacity="0.4"><g transform="translate(175.102505, 160.420583)"><g><path d="M 1.4375 0 L 1.4375 -11.15625 L 2.953125 -11.15625 L 2.953125 0 Z M 1.4375 0 "/></g></g></g><g fill="#1e1e1e" fill-opacity="0.4"><g transform="translate(181.347326, 160.420583)"><g><path d="M 8.0625 0 L 1.4375 0 L 1.4375 -11.15625 L 2.953125 -11.15625 L 2.953125 -1.359375 L 8.0625 -1.359375 Z M 8.0625 0 "/></g></g></g><g fill="#1e1e1e" fill-opacity="0.4"><g transform="translate(191.351502, 160.420583)"><g><path d="M 1.4375 -11.15625 L 8.125 -11.15625 L 8.125 -9.84375 L 2.953125 -9.84375 L 2.953125 -6.453125 L 7.40625 -6.453125 L 7.40625 -5.1875 L 2.953125 -5.1875 L 2.953125 -1.3125 L 8.125 -1.3125 L 8.125 0 L 1.4375 0 Z M 1.4375 -11.15625 "/></g></g></g><g fill="#1e1e1e" fill-opacity="0.4"><g transform="translate(202.056581, 160.420583)"><g><path d="M 1.25 -2.21875 C 1.625 -1.894531 2.050781 -1.628906 2.53125 -1.421875 C 3.007812 -1.222656 3.566406 -1.125 4.203125 -1.125 C 4.972656 -1.125 5.578125 -1.285156 6.015625 -1.609375 C 6.460938 -1.929688 6.6875 -2.363281 6.6875 -2.90625 C 6.6875 -3.125 6.65625 -3.328125 6.59375 -3.515625 C 6.53125 -3.710938 6.40625 -3.894531 6.21875 -4.0625 C 6.03125 -4.238281 5.769531 -4.414062 5.4375 -4.59375 C 5.101562 -4.769531 4.671875 -4.957031 4.140625 -5.15625 C 3.566406 -5.382812 3.082031 -5.609375 2.6875 -5.828125 C 2.289062 -6.046875 1.96875 -6.285156 1.71875 -6.546875 C 1.476562 -6.804688 1.300781 -7.09375 1.1875 -7.40625 C 1.082031 -7.71875 1.03125 -8.078125 1.03125 -8.484375 C 1.03125 -8.867188 1.113281 -9.238281 1.28125 -9.59375 C 1.445312 -9.945312 1.691406 -10.253906 2.015625 -10.515625 C 2.335938 -10.773438 2.734375 -10.976562 3.203125 -11.125 C 3.679688 -11.269531 4.222656 -11.34375 4.828125 -11.34375 C 5.484375 -11.34375 6.070312 -11.273438 6.59375 -11.140625 C 7.113281 -11.015625 7.628906 -10.828125 8.140625 -10.578125 L 7.59375 -9.296875 C 7.226562 -9.503906 6.800781 -9.679688 6.3125 -9.828125 C 5.832031 -9.972656 5.328125 -10.046875 4.796875 -10.046875 C 4.097656 -10.046875 3.546875 -9.910156 3.140625 -9.640625 C 2.734375 -9.367188 2.53125 -9.007812 2.53125 -8.5625 C 2.53125 -8.34375 2.554688 -8.148438 2.609375 -7.984375 C 2.671875 -7.828125 2.789062 -7.671875 2.96875 -7.515625 C 3.144531 -7.359375 3.390625 -7.203125 3.703125 -7.046875 C 4.015625 -6.890625 4.429688 -6.710938 4.953125 -6.515625 C 5.566406 -6.285156 6.085938 -6.046875 6.515625 -5.796875 C 6.941406 -5.554688 7.28125 -5.296875 7.53125 -5.015625 C 7.789062 -4.742188 7.972656 -4.445312 8.078125 -4.125 C 8.191406 -3.8125 8.25 -3.460938 8.25 -3.078125 C 8.25 -2.554688 8.148438 -2.09375 7.953125 -1.6875 C 7.753906 -1.28125 7.472656 -0.9375 7.109375 -0.65625 C 6.753906 -0.375 6.328125 -0.160156 5.828125 -0.015625 C 5.328125 0.117188 4.785156 0.1875 4.203125 0.1875 C 3.429688 0.1875 2.722656 0.0820312 2.078125 -0.125 C 1.441406 -0.332031 0.910156 -0.601562 0.484375 -0.9375 Z M 1.25 -2.21875 "/></g></g></g><g fill="#ffffff" fill-opacity="1"><g transform="translate(66.582084, 160.209328)"><g><path d="M 10.34375 -9.234375 L 7.359375 -2.515625 L 5.859375 -2.515625 L 2.875 -9.234375 L 2.875 0 L 1.4375 0 L 1.4375 -11.15625 L 3.546875 -11.15625 L 6.640625 -4.09375 L 9.6875 -11.15625 L 11.859375 -11.15625 L 11.859375 0 L 10.34375 0 Z M 10.34375 -9.234375 "/></g></g></g><g fill="#ffffff" fill-opacity="1"><g transform="translate(81.731494, 160.209328)"><g><path d="M 0.15625 -0.40625 L 4.53125 -11.15625 L 6.1875 -11.15625 L 10.484375 -0.40625 L 9.09375 0.15625 L 7.859375 -3.03125 L 2.6875 -3.03125 L 1.453125 0.125 Z M 3.171875 -4.296875 L 7.359375 -4.296875 L 5.28125 -9.65625 Z M 3.171875 -4.296875 "/></g></g></g><g fill="#ffffff" fill-opacity="1"><g transform="translate(94.236596, 160.209328)"><g><path d="M 4.0625 -11.15625 L 5.578125 -11.15625 L 5.578125 -3.6875 C 5.578125 -3 5.5 -2.410156 5.34375 -1.921875 C 5.195312 -1.441406 4.984375 -1.039062 4.703125 -0.71875 C 4.429688 -0.40625 4.101562 -0.175781 3.71875 -0.03125 C 3.34375 0.113281 2.921875 0.1875 2.453125 0.1875 C 1.960938 0.1875 1.503906 0.101562 1.078125 -0.0625 C 0.648438 -0.226562 0.289062 -0.453125 0 -0.734375 L 0.734375 -1.890625 C 0.941406 -1.671875 1.191406 -1.484375 1.484375 -1.328125 C 1.785156 -1.179688 2.09375 -1.109375 2.40625 -1.109375 C 2.914062 -1.109375 3.316406 -1.289062 3.609375 -1.65625 C 3.910156 -2.019531 4.0625 -2.640625 4.0625 -3.515625 Z M 4.0625 -11.15625 "/></g></g></g><g fill="#ffffff" fill-opacity="1"><g transform="translate(102.95048, 160.209328)"><g><path d="M 1.4375 -11.15625 L 8.125 -11.15625 L 8.125 -9.84375 L 2.953125 -9.84375 L 2.953125 -6.453125 L 7.40625 -6.453125 L 7.40625 -5.1875 L 2.953125 -5.1875 L 2.953125 -1.3125 L 8.125 -1.3125 L 8.125 0 L 1.4375 0 Z M 1.4375 -11.15625 "/></g></g></g><g fill="#ffffff" fill-opacity="1"><g transform="translate(113.655553, 160.209328)"><g><path d="M 2.34375 -5.59375 C 2.34375 -4.925781 2.429688 -4.316406 2.609375 -3.765625 C 2.785156 -3.222656 3.03125 -2.753906 3.34375 -2.359375 C 3.65625 -1.960938 4.023438 -1.65625 4.453125 -1.4375 C 4.890625 -1.226562 5.367188 -1.125 5.890625 -1.125 C 6.410156 -1.125 6.863281 -1.1875 7.25 -1.3125 C 7.632812 -1.4375 8.007812 -1.601562 8.375 -1.8125 L 8.828125 -0.5625 C 8.429688 -0.34375 7.976562 -0.160156 7.46875 -0.015625 C 6.96875 0.117188 6.382812 0.1875 5.71875 0.1875 C 4.988281 0.1875 4.320312 0.0546875 3.71875 -0.203125 C 3.125 -0.472656 2.609375 -0.851562 2.171875 -1.34375 C 1.734375 -1.84375 1.394531 -2.441406 1.15625 -3.140625 C 0.914062 -3.847656 0.796875 -4.644531 0.796875 -5.53125 C 0.796875 -6.382812 0.914062 -7.164062 1.15625 -7.875 C 1.394531 -8.582031 1.738281 -9.191406 2.1875 -9.703125 C 2.632812 -10.222656 3.171875 -10.625 3.796875 -10.90625 C 4.429688 -11.195312 5.132812 -11.34375 5.90625 -11.34375 C 6.445312 -11.34375 6.929688 -11.289062 7.359375 -11.1875 C 7.796875 -11.09375 8.207031 -10.957031 8.59375 -10.78125 L 8.125 -9.5 C 7.800781 -9.65625 7.460938 -9.78125 7.109375 -9.875 C 6.765625 -9.976562 6.359375 -10.03125 5.890625 -10.03125 C 5.378906 -10.03125 4.90625 -9.929688 4.46875 -9.734375 C 4.039062 -9.535156 3.664062 -9.242188 3.34375 -8.859375 C 3.03125 -8.472656 2.785156 -8.003906 2.609375 -7.453125 C 2.429688 -6.910156 2.34375 -6.289062 2.34375 -5.59375 Z M 2.34375 -5.59375 "/></g></g></g><g fill="#ffffff" fill-opacity="1"><g transform="translate(124.981878, 160.209328)"><g><path d="M 0.15625 -11.15625 L 8.53125 -11.15625 L 8.53125 -9.8125 L 5.09375 -9.8125 L 5.09375 0 L 3.59375 0 L 3.59375 -9.8125 L 0.15625 -9.8125 Z M 0.15625 -11.15625 "/></g></g></g><g fill="#ffffff" fill-opacity="1"><g transform="translate(135.527651, 160.209328)"><g><path d="M 1.4375 0 L 1.4375 -11.15625 L 2.953125 -11.15625 L 2.953125 0 Z M 1.4375 0 "/></g></g></g><g fill="#ffffff" fill-opacity="1"><g transform="translate(141.772467, 160.209328)"><g><path d="M 2.34375 -5.59375 C 2.34375 -4.925781 2.429688 -4.316406 2.609375 -3.765625 C 2.785156 -3.222656 3.03125 -2.753906 3.34375 -2.359375 C 3.65625 -1.960938 4.023438 -1.65625 4.453125 -1.4375 C 4.890625 -1.226562 5.367188 -1.125 5.890625 -1.125 C 6.410156 -1.125 6.863281 -1.1875 7.25 -1.3125 C 7.632812 -1.4375 8.007812 -1.601562 8.375 -1.8125 L 8.828125 -0.5625 C 8.429688 -0.34375 7.976562 -0.160156 7.46875 -0.015625 C 6.96875 0.117188 6.382812 0.1875 5.71875 0.1875 C 4.988281 0.1875 4.320312 0.0546875 3.71875 -0.203125 C 3.125 -0.472656 2.609375 -0.851562 2.171875 -1.34375 C 1.734375 -1.84375 1.394531 -2.441406 1.15625 -3.140625 C 0.914062 -3.847656 0.796875 -4.644531 0.796875 -5.53125 C 0.796875 -6.382812 0.914062 -7.164062 1.15625 -7.875 C 1.394531 -8.582031 1.738281 -9.191406 2.1875 -9.703125 C 2.632812 -10.222656 3.171875 -10.625 3.796875 -10.90625 C 4.429688 -11.195312 5.132812 -11.34375 5.90625 -11.34375 C 6.445312 -11.34375 6.929688 -11.289062 7.359375 -11.1875 C 7.796875 -11.09375 8.207031 -10.957031 8.59375 -10.78125 L 8.125 -9.5 C 7.800781 -9.65625 7.460938 -9.78125 7.109375 -9.875 C 6.765625 -9.976562 6.359375 -10.03125 5.890625 -10.03125 C 5.378906 -10.03125 4.90625 -9.929688 4.46875 -9.734375 C 4.039062 -9.535156 3.664062 -9.242188 3.34375 -8.859375 C 3.03125 -8.472656 2.785156 -8.003906 2.609375 -7.453125 C 2.429688 -6.910156 2.34375 -6.289062 2.34375 -5.59375 Z M 2.34375 -5.59375 "/></g></g></g><g fill="#ffffff" fill-opacity="1"><g transform="translate(153.098792, 160.209328)"><g/></g></g><g fill="#ffffff" fill-opacity="1"><g transform="translate(159.741843, 160.209328)"><g><path d="M 10.34375 -9.234375 L 7.359375 -2.515625 L 5.859375 -2.515625 L 2.875 -9.234375 L 2.875 0 L 1.4375 0 L 1.4375 -11.15625 L 3.546875 -11.15625 L 6.640625 -4.09375 L 9.6875 -11.15625 L 11.859375 -11.15625 L 11.859375 0 L 10.34375 0 Z M 10.34375 -9.234375 "/></g></g></g><g fill="#ffffff" fill-opacity="1"><g transform="translate(174.891258, 160.209328)"><g><path d="M 1.4375 0 L 1.4375 -11.15625 L 2.953125 -11.15625 L 2.953125 0 Z M 1.4375 0 "/></g></g></g><g fill="#ffffff" fill-opacity="1"><g transform="translate(181.136079, 160.209328)"><g><path d="M 8.0625 0 L 1.4375 0 L 1.4375 -11.15625 L 2.953125 -11.15625 L 2.953125 -1.359375 L 8.0625 -1.359375 Z M 8.0625 0 "/></g></g></g><g fill="#ffffff" fill-opacity="1"><g transform="translate(191.140255, 160.209328)"><g><path d="M 1.4375 -11.15625 L 8.125 -11.15625 L 8.125 -9.84375 L 2.953125 -9.84375 L 2.953125 -6.453125 L 7.40625 -6.453125 L 7.40625 -5.1875 L 2.953125 -5.1875 L 2.953125 -1.3125 L 8.125 -1.3125 L 8.125 0 L 1.4375 0 Z M 1.4375 -11.15625 "/></g></g></g><g fill="#ffffff" fill-opacity="1"><g transform="translate(201.845333, 160.209328)"><g><path d="M 1.25 -2.21875 C 1.625 -1.894531 2.050781 -1.628906 2.53125 -1.421875 C 3.007812 -1.222656 3.566406 -1.125 4.203125 -1.125 C 4.972656 -1.125 5.578125 -1.285156 6.015625 -1.609375 C 6.460938 -1.929688 6.6875 -2.363281 6.6875 -2.90625 C 6.6875 -3.125 6.65625 -3.328125 6.59375 -3.515625 C 6.53125 -3.710938 6.40625 -3.894531 6.21875 -4.0625 C 6.03125 -4.238281 5.769531 -4.414062 5.4375 -4.59375 C 5.101562 -4.769531 4.671875 -4.957031 4.140625 -5.15625 C 3.566406 -5.382812 3.082031 -5.609375 2.6875 -5.828125 C 2.289062 -6.046875 1.96875 -6.285156 1.71875 -6.546875 C 1.476562 -6.804688 1.300781 -7.09375 1.1875 -7.40625 C 1.082031 -7.71875 1.03125 -8.078125 1.03125 -8.484375 C 1.03125 -8.867188 1.113281 -9.238281 1.28125 -9.59375 C 1.445312 -9.945312 1.691406 -10.253906 2.015625 -10.515625 C 2.335938 -10.773438 2.734375 -10.976562 3.203125 -11.125 C 3.679688 -11.269531 4.222656 -11.34375 4.828125 -11.34375 C 5.484375 -11.34375 6.070312 -11.273438 6.59375 -11.140625 C 7.113281 -11.015625 7.628906 -10.828125 8.140625 -10.578125 L 7.59375 -9.296875 C 7.226562 -9.503906 6.800781 -9.679688 6.3125 -9.828125 C 5.832031 -9.972656 5.328125 -10.046875 4.796875 -10.046875 C 4.097656 -10.046875 3.546875 -9.910156 3.140625 -9.640625 C 2.734375 -9.367188 2.53125 -9.007812 2.53125 -8.5625 C 2.53125 -8.34375 2.554688 -8.148438 2.609375 -7.984375 C 2.671875 -7.828125 2.789062 -7.671875 2.96875 -7.515625 C 3.144531 -7.359375 3.390625 -7.203125 3.703125 -7.046875 C 4.015625 -6.890625 4.429688 -6.710938 4.953125 -6.515625 C 5.566406 -6.285156 6.085938 -6.046875 6.515625 -5.796875 C 6.941406 -5.554688 7.28125 -5.296875 7.53125 -5.015625 C 7.789062 -4.742188 7.972656 -4.445312 8.078125 -4.125 C 8.191406 -3.8125 8.25 -3.460938 8.25 -3.078125 C 8.25 -2.554688 8.148438 -2.09375 7.953125 -1.6875 C 7.753906 -1.28125 7.472656 -0.9375 7.109375 -0.65625 C 6.753906 -0.375 6.328125 -0.160156 5.828125 -0.015625 C 5.328125 0.117188 4.785156 0.1875 4.203125 0.1875 C 3.429688 0.1875 2.722656 0.0820312 2.078125 -0.125 C 1.441406 -0.332031 0.910156 -0.601562 0.484375 -0.9375 Z M 1.25 -2.21875 "/></g></g></g><path stroke-linecap="butt" transform="matrix(0.746875, 0, 0, 0.746875, 26.949075, 153.860891)" fill="none" stroke-linejoin="miter" d="M 0.000191908 1.002154 L 41.04622 1.002154 " stroke="#ece6db" stroke-width="2" stroke-opacity="1" stroke-miterlimit="4"/><path stroke-linecap="butt" transform="matrix(0.746875, 0, 0, 0.746875, 221.320915, 153.860891)" fill="none" stroke-linejoin="miter" d="M -0.000806181 1.002154 L 41.045222 1.002154 " stroke="#ece6db" stroke-width="2" stroke-opacity="1" stroke-miterlimit="4"/></svg>