<svg xmlns="http://www.w3.org/2000/svg" xmlns:xlink="http://www.w3.org/1999/xlink" width="500" zoomAndPan="magnify" viewBox="0 0 375 374.999991" height="500" preserveAspectRatio="xMidYMid meet" version="1.0"><defs><g/></defs><g fill="#1e1e1e" fill-opacity="0.4"><g transform="translate(48.179915, 242.738722)"><g><path d="M 77.09375 11.09375 C 76.894531 11.195312 76.695312 11.25 76.5 11.25 C 76.300781 11.25 75.898438 11.25 75.296875 11.25 C 73.898438 11.25 72.273438 11.023438 70.421875 10.578125 C 68.578125 10.128906 66.78125 9.578125 65.03125 8.921875 C 63.28125 8.273438 61.78125 7.550781 60.53125 6.75 C 59.28125 5.945312 58.503906 5.25 58.203125 4.65625 C 58.097656 3.25 58.046875 1.796875 58.046875 0.296875 C 58.046875 -1.203125 58.046875 -2.648438 58.046875 -4.046875 C 58.046875 -15.242188 58.867188 -26.941406 60.515625 -39.140625 C 62.171875 -51.347656 64.898438 -64.550781 68.703125 -78.75 C 69.097656 -80.144531 69.519531 -81.914062 69.96875 -84.0625 C 70.425781 -86.21875 70.90625 -88.546875 71.40625 -91.046875 C 69 -89.148438 66.144531 -86.125 62.84375 -81.96875 C 59.550781 -77.820312 56.078125 -72.921875 52.421875 -67.265625 C 48.773438 -61.617188 45.125 -55.421875 41.46875 -48.671875 C 37.820312 -41.921875 34.5 -35.070312 31.5 -28.125 C 28.5 -21.175781 25.921875 -14.300781 23.765625 -7.5 C 21.617188 -0.695312 20.296875 5.601562 19.796875 11.40625 C 14.992188 10 11.664062 8.59375 9.8125 7.1875 C 7.96875 5.789062 7.046875 4.09375 7.046875 2.09375 C 7.046875 0.300781 7.59375 -2.242188 8.6875 -5.546875 C 9.789062 -8.847656 11.34375 -12.75 13.34375 -17.25 C 15.34375 -21.75 17.789062 -26.773438 20.6875 -32.328125 C 23.59375 -37.878906 26.796875 -43.851562 30.296875 -50.25 C 34.296875 -57.550781 38.21875 -64.398438 42.0625 -70.796875 C 45.914062 -77.203125 49.691406 -83.003906 53.390625 -88.203125 C 57.097656 -93.398438 60.722656 -97.898438 64.265625 -101.703125 C 67.816406 -105.503906 71.34375 -108.40625 74.84375 -110.40625 C 76.25 -110.40625 78.125 -110.050781 80.46875 -109.34375 C 82.820312 -108.644531 85.125 -107.796875 87.375 -106.796875 C 89.625 -105.796875 91.625 -104.769531 93.375 -103.71875 C 95.125 -102.675781 96.097656 -101.800781 96.296875 -101.09375 C 94.898438 -98.300781 93.25 -94.101562 91.34375 -88.5 C 89.445312 -82.894531 87.523438 -76.539062 85.578125 -69.4375 C 83.628906 -62.34375 81.78125 -54.820312 80.03125 -46.875 C 78.28125 -38.925781 76.90625 -31.300781 75.90625 -24 C 78.195312 -29.5 80.867188 -35.222656 83.921875 -41.171875 C 86.972656 -47.117188 90.195312 -53.019531 93.59375 -58.875 C 97 -64.726562 100.472656 -70.40625 104.015625 -75.90625 C 107.566406 -81.40625 111.039062 -86.425781 114.4375 -90.96875 C 117.84375 -95.519531 121.019531 -99.492188 123.96875 -102.890625 C 126.925781 -106.296875 129.550781 -108.800781 131.84375 -110.40625 C 133.25 -110.40625 135.125 -110.050781 137.46875 -109.34375 C 139.820312 -108.644531 142.125 -107.796875 144.375 -106.796875 C 146.625 -105.796875 148.625 -104.769531 150.375 -103.71875 C 152.125 -102.675781 153.097656 -101.800781 153.296875 -101.09375 C 150.097656 -95.394531 147.296875 -88.445312 144.890625 -80.25 C 142.492188 -72.050781 140.46875 -63.453125 138.8125 -54.453125 C 137.164062 -45.453125 135.914062 -36.523438 135.0625 -27.671875 C 134.21875 -18.828125 133.796875 -10.90625 133.796875 -3.90625 C 133.796875 -1.601562 133.796875 0.796875 133.796875 3.296875 C 133.796875 5.796875 133.894531 8.394531 134.09375 11.09375 C 132.695312 11.09375 131.023438 10.914062 129.078125 10.5625 C 127.128906 10.21875 125.226562 9.742188 123.375 9.140625 C 121.519531 8.546875 119.84375 7.875 118.34375 7.125 C 116.84375 6.375 115.796875 5.550781 115.203125 4.65625 C 115.097656 3.25 115.046875 1.796875 115.046875 0.296875 C 115.046875 -1.203125 115.046875 -2.648438 115.046875 -4.046875 C 115.046875 -15.242188 115.867188 -26.941406 117.515625 -39.140625 C 119.171875 -51.347656 121.898438 -64.550781 125.703125 -78.75 C 126.097656 -80.144531 126.546875 -82.039062 127.046875 -84.4375 C 127.546875 -86.84375 128.046875 -89.347656 128.546875 -91.953125 C 125.742188 -90.546875 122.566406 -87.867188 119.015625 -83.921875 C 115.472656 -79.972656 111.875 -75.171875 108.21875 -69.515625 C 104.570312 -63.867188 100.972656 -57.59375 97.421875 -50.6875 C 93.867188 -43.789062 90.664062 -36.769531 87.8125 -29.625 C 84.96875 -22.476562 82.570312 -15.378906 80.625 -8.328125 C 78.675781 -1.273438 77.5 5.195312 77.09375 11.09375 Z M 77.09375 11.09375 "/></g></g></g><g fill="#1e1e1e" fill-opacity="0.4"><g transform="translate(189.479936, 242.738722)"><g><path d="M 77.09375 11.09375 C 76.894531 11.195312 76.695312 11.25 76.5 11.25 C 76.300781 11.25 75.898438 11.25 75.296875 11.25 C 73.898438 11.25 72.273438 11.023438 70.421875 10.578125 C 68.578125 10.128906 66.78125 9.578125 65.03125 8.921875 C 63.28125 8.273438 61.78125 7.550781 60.53125 6.75 C 59.28125 5.945312 58.503906 5.25 58.203125 4.65625 C 58.097656 3.25 58.046875 1.796875 58.046875 0.296875 C 58.046875 -1.203125 58.046875 -2.648438 58.046875 -4.046875 C 58.046875 -15.242188 58.867188 -26.941406 60.515625 -39.140625 C 62.171875 -51.347656 64.898438 -64.550781 68.703125 -78.75 C 69.097656 -80.144531 69.519531 -81.914062 69.96875 -84.0625 C 70.425781 -86.21875 70.90625 -88.546875 71.40625 -91.046875 C 69 -89.148438 66.144531 -86.125 62.84375 -81.96875 C 59.550781 -77.820312 56.078125 -72.921875 52.421875 -67.265625 C 48.773438 -61.617188 45.125 -55.421875 41.46875 -48.671875 C 37.820312 -41.921875 34.5 -35.070312 31.5 -28.125 C 28.5 -21.175781 25.921875 -14.300781 23.765625 -7.5 C 21.617188 -0.695312 20.296875 5.601562 19.796875 11.40625 C 14.992188 10 11.664062 8.59375 9.8125 7.1875 C 7.96875 5.789062 7.046875 4.09375 7.046875 2.09375 C 7.046875 0.300781 7.59375 -2.242188 8.6875 -5.546875 C 9.789062 -8.847656 11.34375 -12.75 13.34375 -17.25 C 15.34375 -21.75 17.789062 -26.773438 20.6875 -32.328125 C 23.59375 -37.878906 26.796875 -43.851562 30.296875 -50.25 C 34.296875 -57.550781 38.21875 -64.398438 42.0625 -70.796875 C 45.914062 -77.203125 49.691406 -83.003906 53.390625 -88.203125 C 57.097656 -93.398438 60.722656 -97.898438 64.265625 -101.703125 C 67.816406 -105.503906 71.34375 -108.40625 74.84375 -110.40625 C 76.25 -110.40625 78.125 -110.050781 80.46875 -109.34375 C 82.820312 -108.644531 85.125 -107.796875 87.375 -106.796875 C 89.625 -105.796875 91.625 -104.769531 93.375 -103.71875 C 95.125 -102.675781 96.097656 -101.800781 96.296875 -101.09375 C 94.898438 -98.300781 93.25 -94.101562 91.34375 -88.5 C 89.445312 -82.894531 87.523438 -76.539062 85.578125 -69.4375 C 83.628906 -62.34375 81.78125 -54.820312 80.03125 -46.875 C 78.28125 -38.925781 76.90625 -31.300781 75.90625 -24 C 78.195312 -29.5 80.867188 -35.222656 83.921875 -41.171875 C 86.972656 -47.117188 90.195312 -53.019531 93.59375 -58.875 C 97 -64.726562 100.472656 -70.40625 104.015625 -75.90625 C 107.566406 -81.40625 111.039062 -86.425781 114.4375 -90.96875 C 117.84375 -95.519531 121.019531 -99.492188 123.96875 -102.890625 C 126.925781 -106.296875 129.550781 -108.800781 131.84375 -110.40625 C 133.25 -110.40625 135.125 -110.050781 137.46875 -109.34375 C 139.820312 -108.644531 142.125 -107.796875 144.375 -106.796875 C 146.625 -105.796875 148.625 -104.769531 150.375 -103.71875 C 152.125 -102.675781 153.097656 -101.800781 153.296875 -101.09375 C 150.097656 -95.394531 147.296875 -88.445312 144.890625 -80.25 C 142.492188 -72.050781 140.46875 -63.453125 138.8125 -54.453125 C 137.164062 -45.453125 135.914062 -36.523438 135.0625 -27.671875 C 134.21875 -18.828125 133.796875 -10.90625 133.796875 -3.90625 C 133.796875 -1.601562 133.796875 0.796875 133.796875 3.296875 C 133.796875 5.796875 133.894531 8.394531 134.09375 11.09375 C 132.695312 11.09375 131.023438 10.914062 129.078125 10.5625 C 127.128906 10.21875 125.226562 9.742188 123.375 9.140625 C 121.519531 8.546875 119.84375 7.875 118.34375 7.125 C 116.84375 6.375 115.796875 5.550781 115.203125 4.65625 C 115.097656 3.25 115.046875 1.796875 115.046875 0.296875 C 115.046875 -1.203125 115.046875 -2.648438 115.046875 -4.046875 C 115.046875 -15.242188 115.867188 -26.941406 117.515625 -39.140625 C 119.171875 -51.347656 121.898438 -64.550781 125.703125 -78.75 C 126.097656 -80.144531 126.546875 -82.039062 127.046875 -84.4375 C 127.546875 -86.84375 128.046875 -89.347656 128.546875 -91.953125 C 125.742188 -90.546875 122.566406 -87.867188 119.015625 -83.921875 C 115.472656 -79.972656 111.875 -75.171875 108.21875 -69.515625 C 104.570312 -63.867188 100.972656 -57.59375 97.421875 -50.6875 C 93.867188 -43.789062 90.664062 -36.769531 87.8125 -29.625 C 84.96875 -22.476562 82.570312 -15.378906 80.625 -8.328125 C 78.675781 -1.273438 77.5 5.195312 77.09375 11.09375 Z M 77.09375 11.09375 "/></g></g></g><g fill="#ffffff" fill-opacity="1"><g transform="translate(46.191178, 240.749984)"><g><path d="M 77.09375 11.09375 C 76.894531 11.195312 76.695312 11.25 76.5 11.25 C 76.300781 11.25 75.898438 11.25 75.296875 11.25 C 73.898438 11.25 72.273438 11.023438 70.421875 10.578125 C 68.578125 10.128906 66.78125 9.578125 65.03125 8.921875 C 63.28125 8.273438 61.78125 7.550781 60.53125 6.75 C 59.28125 5.945312 58.503906 5.25 58.203125 4.65625 C 58.097656 3.25 58.046875 1.796875 58.046875 0.296875 C 58.046875 -1.203125 58.046875 -2.648438 58.046875 -4.046875 C 58.046875 -15.242188 58.867188 -26.941406 60.515625 -39.140625 C 62.171875 -51.347656 64.898438 -64.550781 68.703125 -78.75 C 69.097656 -80.144531 69.519531 -81.914062 69.96875 -84.0625 C 70.425781 -86.21875 70.90625 -88.546875 71.40625 -91.046875 C 69 -89.148438 66.144531 -86.125 62.84375 -81.96875 C 59.550781 -77.820312 56.078125 -72.921875 52.421875 -67.265625 C 48.773438 -61.617188 45.125 -55.421875 41.46875 -48.671875 C 37.820312 -41.921875 34.5 -35.070312 31.5 -28.125 C 28.5 -21.175781 25.921875 -14.300781 23.765625 -7.5 C 21.617188 -0.695312 20.296875 5.601562 19.796875 11.40625 C 14.992188 10 11.664062 8.59375 9.8125 7.1875 C 7.96875 5.789062 7.046875 4.09375 7.046875 2.09375 C 7.046875 0.300781 7.59375 -2.242188 8.6875 -5.546875 C 9.789062 -8.847656 11.34375 -12.75 13.34375 -17.25 C 15.34375 -21.75 17.789062 -26.773438 20.6875 -32.328125 C 23.59375 -37.878906 26.796875 -43.851562 30.296875 -50.25 C 34.296875 -57.550781 38.21875 -64.398438 42.0625 -70.796875 C 45.914062 -77.203125 49.691406 -83.003906 53.390625 -88.203125 C 57.097656 -93.398438 60.722656 -97.898438 64.265625 -101.703125 C 67.816406 -105.503906 71.34375 -108.40625 74.84375 -110.40625 C 76.25 -110.40625 78.125 -110.050781 80.46875 -109.34375 C 82.820312 -108.644531 85.125 -107.796875 87.375 -106.796875 C 89.625 -105.796875 91.625 -104.769531 93.375 -103.71875 C 95.125 -102.675781 96.097656 -101.800781 96.296875 -101.09375 C 94.898438 -98.300781 93.25 -94.101562 91.34375 -88.5 C 89.445312 -82.894531 87.523438 -76.539062 85.578125 -69.4375 C 83.628906 -62.34375 81.78125 -54.820312 80.03125 -46.875 C 78.28125 -38.925781 76.90625 -31.300781 75.90625 -24 C 78.195312 -29.5 80.867188 -35.222656 83.921875 -41.171875 C 86.972656 -47.117188 90.195312 -53.019531 93.59375 -58.875 C 97 -64.726562 100.472656 -70.40625 104.015625 -75.90625 C 107.566406 -81.40625 111.039062 -86.425781 114.4375 -90.96875 C 117.84375 -95.519531 121.019531 -99.492188 123.96875 -102.890625 C 126.925781 -106.296875 129.550781 -108.800781 131.84375 -110.40625 C 133.25 -110.40625 135.125 -110.050781 137.46875 -109.34375 C 139.820312 -108.644531 142.125 -107.796875 144.375 -106.796875 C 146.625 -105.796875 148.625 -104.769531 150.375 -103.71875 C 152.125 -102.675781 153.097656 -101.800781 153.296875 -101.09375 C 150.097656 -95.394531 147.296875 -88.445312 144.890625 -80.25 C 142.492188 -72.050781 140.46875 -63.453125 138.8125 -54.453125 C 137.164062 -45.453125 135.914062 -36.523438 135.0625 -27.671875 C 134.21875 -18.828125 133.796875 -10.90625 133.796875 -3.90625 C 133.796875 -1.601562 133.796875 0.796875 133.796875 3.296875 C 133.796875 5.796875 133.894531 8.394531 134.09375 11.09375 C 132.695312 11.09375 131.023438 10.914062 129.078125 10.5625 C 127.128906 10.21875 125.226562 9.742188 123.375 9.140625 C 121.519531 8.546875 119.84375 7.875 118.34375 7.125 C 116.84375 6.375 115.796875 5.550781 115.203125 4.65625 C 115.097656 3.25 115.046875 1.796875 115.046875 0.296875 C 115.046875 -1.203125 115.046875 -2.648438 115.046875 -4.046875 C 115.046875 -15.242188 115.867188 -26.941406 117.515625 -39.140625 C 119.171875 -51.347656 121.898438 -64.550781 125.703125 -78.75 C 126.097656 -80.144531 126.546875 -82.039062 127.046875 -84.4375 C 127.546875 -86.84375 128.046875 -89.347656 128.546875 -91.953125 C 125.742188 -90.546875 122.566406 -87.867188 119.015625 -83.921875 C 115.472656 -79.972656 111.875 -75.171875 108.21875 -69.515625 C 104.570312 -63.867188 100.972656 -57.59375 97.421875 -50.6875 C 93.867188 -43.789062 90.664062 -36.769531 87.8125 -29.625 C 84.96875 -22.476562 82.570312 -15.378906 80.625 -8.328125 C 78.675781 -1.273438 77.5 5.195312 77.09375 11.09375 Z M 77.09375 11.09375 "/></g></g></g><g fill="#ffffff" fill-opacity="1"><g transform="translate(187.491198, 240.749984)"><g><path d="M 77.09375 11.09375 C 76.894531 11.195312 76.695312 11.25 76.5 11.25 C 76.300781 11.25 75.898438 11.25 75.296875 11.25 C 73.898438 11.25 72.273438 11.023438 70.421875 10.578125 C 68.578125 10.128906 66.78125 9.578125 65.03125 8.921875 C 63.28125 8.273438 61.78125 7.550781 60.53125 6.75 C 59.28125 5.945312 58.503906 5.25 58.203125 4.65625 C 58.097656 3.25 58.046875 1.796875 58.046875 0.296875 C 58.046875 -1.203125 58.046875 -2.648438 58.046875 -4.046875 C 58.046875 -15.242188 58.867188 -26.941406 60.515625 -39.140625 C 62.171875 -51.347656 64.898438 -64.550781 68.703125 -78.75 C 69.097656 -80.144531 69.519531 -81.914062 69.96875 -84.0625 C 70.425781 -86.21875 70.90625 -88.546875 71.40625 -91.046875 C 69 -89.148438 66.144531 -86.125 62.84375 -81.96875 C 59.550781 -77.820312 56.078125 -72.921875 52.421875 -67.265625 C 48.773438 -61.617188 45.125 -55.421875 41.46875 -48.671875 C 37.820312 -41.921875 34.5 -35.070312 31.5 -28.125 C 28.5 -21.175781 25.921875 -14.300781 23.765625 -7.5 C 21.617188 -0.695312 20.296875 5.601562 19.796875 11.40625 C 14.992188 10 11.664062 8.59375 9.8125 7.1875 C 7.96875 5.789062 7.046875 4.09375 7.046875 2.09375 C 7.046875 0.300781 7.59375 -2.242188 8.6875 -5.546875 C 9.789062 -8.847656 11.34375 -12.75 13.34375 -17.25 C 15.34375 -21.75 17.789062 -26.773438 20.6875 -32.328125 C 23.59375 -37.878906 26.796875 -43.851562 30.296875 -50.25 C 34.296875 -57.550781 38.21875 -64.398438 42.0625 -70.796875 C 45.914062 -77.203125 49.691406 -83.003906 53.390625 -88.203125 C 57.097656 -93.398438 60.722656 -97.898438 64.265625 -101.703125 C 67.816406 -105.503906 71.34375 -108.40625 74.84375 -110.40625 C 76.25 -110.40625 78.125 -110.050781 80.46875 -109.34375 C 82.820312 -108.644531 85.125 -107.796875 87.375 -106.796875 C 89.625 -105.796875 91.625 -104.769531 93.375 -103.71875 C 95.125 -102.675781 96.097656 -101.800781 96.296875 -101.09375 C 94.898438 -98.300781 93.25 -94.101562 91.34375 -88.5 C 89.445312 -82.894531 87.523438 -76.539062 85.578125 -69.4375 C 83.628906 -62.34375 81.78125 -54.820312 80.03125 -46.875 C 78.28125 -38.925781 76.90625 -31.300781 75.90625 -24 C 78.195312 -29.5 80.867188 -35.222656 83.921875 -41.171875 C 86.972656 -47.117188 90.195312 -53.019531 93.59375 -58.875 C 97 -64.726562 100.472656 -70.40625 104.015625 -75.90625 C 107.566406 -81.40625 111.039062 -86.425781 114.4375 -90.96875 C 117.84375 -95.519531 121.019531 -99.492188 123.96875 -102.890625 C 126.925781 -106.296875 129.550781 -108.800781 131.84375 -110.40625 C 133.25 -110.40625 135.125 -110.050781 137.46875 -109.34375 C 139.820312 -108.644531 142.125 -107.796875 144.375 -106.796875 C 146.625 -105.796875 148.625 -104.769531 150.375 -103.71875 C 152.125 -102.675781 153.097656 -101.800781 153.296875 -101.09375 C 150.097656 -95.394531 147.296875 -88.445312 144.890625 -80.25 C 142.492188 -72.050781 140.46875 -63.453125 138.8125 -54.453125 C 137.164062 -45.453125 135.914062 -36.523438 135.0625 -27.671875 C 134.21875 -18.828125 133.796875 -10.90625 133.796875 -3.90625 C 133.796875 -1.601562 133.796875 0.796875 133.796875 3.296875 C 133.796875 5.796875 133.894531 8.394531 134.09375 11.09375 C 132.695312 11.09375 131.023438 10.914062 129.078125 10.5625 C 127.128906 10.21875 125.226562 9.742188 123.375 9.140625 C 121.519531 8.546875 119.84375 7.875 118.34375 7.125 C 116.84375 6.375 115.796875 5.550781 115.203125 4.65625 C 115.097656 3.25 115.046875 1.796875 115.046875 0.296875 C 115.046875 -1.203125 115.046875 -2.648438 115.046875 -4.046875 C 115.046875 -15.242188 115.867188 -26.941406 117.515625 -39.140625 C 119.171875 -51.347656 121.898438 -64.550781 125.703125 -78.75 C 126.097656 -80.144531 126.546875 -82.039062 127.046875 -84.4375 C 127.546875 -86.84375 128.046875 -89.347656 128.546875 -91.953125 C 125.742188 -90.546875 122.566406 -87.867188 119.015625 -83.921875 C 115.472656 -79.972656 111.875 -75.171875 108.21875 -69.515625 C 104.570312 -63.867188 100.972656 -57.59375 97.421875 -50.6875 C 93.867188 -43.789062 90.664062 -36.769531 87.8125 -29.625 C 84.96875 -22.476562 82.570312 -15.378906 80.625 -8.328125 C 78.675781 -1.273438 77.5 5.195312 77.09375 11.09375 Z M 77.09375 11.09375 "/></g></g></g><g fill="#1e1e1e" fill-opacity="0.4"><g transform="translate(114.612551, 282.58712)"><g><path d="M 10.390625 -9.265625 L 7.390625 -2.53125 L 5.890625 -2.53125 L 2.875 -9.265625 L 2.875 0 L 1.4375 0 L 1.4375 -11.203125 L 3.5625 -11.203125 L 6.671875 -4.109375 L 9.734375 -11.203125 L 11.90625 -11.203125 L 11.90625 0 L 10.390625 0 Z M 10.390625 -9.265625 "/></g></g></g><g fill="#1e1e1e" fill-opacity="0.4"><g transform="translate(129.825348, 282.58712)"><g><path d="M 0.15625 -0.40625 L 4.546875 -11.203125 L 6.203125 -11.203125 L 10.53125 -0.40625 L 9.140625 0.15625 L 7.890625 -3.046875 L 2.703125 -3.046875 L 1.453125 0.125 Z M 3.1875 -4.3125 L 7.390625 -4.3125 L 5.296875 -9.703125 Z M 3.1875 -4.3125 "/></g></g></g><g fill="#1e1e1e" fill-opacity="0.4"><g transform="translate(142.382774, 282.58712)"><g><path d="M 4.078125 -11.203125 L 5.59375 -11.203125 L 5.59375 -3.703125 C 5.59375 -3.015625 5.519531 -2.425781 5.375 -1.9375 C 5.226562 -1.445312 5.015625 -1.039062 4.734375 -0.71875 C 4.453125 -0.40625 4.117188 -0.175781 3.734375 -0.03125 C 3.359375 0.113281 2.9375 0.1875 2.46875 0.1875 C 1.976562 0.1875 1.515625 0.101562 1.078125 -0.0625 C 0.648438 -0.226562 0.289062 -0.453125 0 -0.734375 L 0.734375 -1.90625 C 0.953125 -1.675781 1.207031 -1.488281 1.5 -1.34375 C 1.800781 -1.195312 2.109375 -1.125 2.421875 -1.125 C 2.929688 -1.125 3.332031 -1.300781 3.625 -1.65625 C 3.925781 -2.019531 4.078125 -2.644531 4.078125 -3.53125 Z M 4.078125 -11.203125 "/></g></g></g><g fill="#1e1e1e" fill-opacity="0.4"><g transform="translate(151.133117, 282.58712)"><g><path d="M 1.4375 -11.203125 L 8.15625 -11.203125 L 8.15625 -9.890625 L 2.953125 -9.890625 L 2.953125 -6.484375 L 7.4375 -6.484375 L 7.4375 -5.203125 L 2.953125 -5.203125 L 2.953125 -1.3125 L 8.15625 -1.3125 L 8.15625 0 L 1.4375 0 Z M 1.4375 -11.203125 "/></g></g></g><g fill="#1e1e1e" fill-opacity="0.4"><g transform="translate(161.882981, 282.58712)"><g><path d="M 2.359375 -5.609375 C 2.359375 -4.941406 2.441406 -4.332031 2.609375 -3.78125 C 2.785156 -3.226562 3.03125 -2.753906 3.34375 -2.359375 C 3.664062 -1.972656 4.046875 -1.671875 4.484375 -1.453125 C 4.921875 -1.242188 5.398438 -1.140625 5.921875 -1.140625 C 6.441406 -1.140625 6.894531 -1.195312 7.28125 -1.3125 C 7.664062 -1.4375 8.039062 -1.609375 8.40625 -1.828125 L 8.859375 -0.5625 C 8.460938 -0.34375 8.007812 -0.160156 7.5 -0.015625 C 7 0.117188 6.414062 0.1875 5.75 0.1875 C 5.007812 0.1875 4.335938 0.0546875 3.734375 -0.203125 C 3.128906 -0.472656 2.609375 -0.851562 2.171875 -1.34375 C 1.734375 -1.84375 1.394531 -2.445312 1.15625 -3.15625 C 0.914062 -3.863281 0.796875 -4.660156 0.796875 -5.546875 C 0.796875 -6.398438 0.914062 -7.179688 1.15625 -7.890625 C 1.394531 -8.609375 1.738281 -9.226562 2.1875 -9.75 C 2.632812 -10.269531 3.175781 -10.671875 3.8125 -10.953125 C 4.445312 -11.242188 5.15625 -11.390625 5.9375 -11.390625 C 6.476562 -11.390625 6.960938 -11.335938 7.390625 -11.234375 C 7.828125 -11.140625 8.238281 -11 8.625 -10.8125 L 8.15625 -9.53125 C 7.820312 -9.695312 7.484375 -9.828125 7.140625 -9.921875 C 6.796875 -10.015625 6.390625 -10.0625 5.921875 -10.0625 C 5.410156 -10.0625 4.9375 -9.960938 4.5 -9.765625 C 4.0625 -9.566406 3.679688 -9.273438 3.359375 -8.890625 C 3.035156 -8.503906 2.785156 -8.035156 2.609375 -7.484375 C 2.441406 -6.941406 2.359375 -6.316406 2.359375 -5.609375 Z M 2.359375 -5.609375 "/></g></g></g><g fill="#1e1e1e" fill-opacity="0.4"><g transform="translate(173.256697, 282.58712)"><g><path d="M 0.15625 -11.203125 L 8.5625 -11.203125 L 8.5625 -9.859375 L 5.125 -9.859375 L 5.125 0 L 3.59375 0 L 3.59375 -9.859375 L 0.15625 -9.859375 Z M 0.15625 -11.203125 "/></g></g></g><g fill="#1e1e1e" fill-opacity="0.4"><g transform="translate(183.846595, 282.58712)"><g><path d="M 1.4375 0 L 1.4375 -11.203125 L 2.953125 -11.203125 L 2.953125 0 Z M 1.4375 0 "/></g></g></g><g fill="#1e1e1e" fill-opacity="0.4"><g transform="translate(190.117539, 282.58712)"><g><path d="M 2.359375 -5.609375 C 2.359375 -4.941406 2.441406 -4.332031 2.609375 -3.78125 C 2.785156 -3.226562 3.03125 -2.753906 3.34375 -2.359375 C 3.664062 -1.972656 4.046875 -1.671875 4.484375 -1.453125 C 4.921875 -1.242188 5.398438 -1.140625 5.921875 -1.140625 C 6.441406 -1.140625 6.894531 -1.195312 7.28125 -1.3125 C 7.664062 -1.4375 8.039062 -1.609375 8.40625 -1.828125 L 8.859375 -0.5625 C 8.460938 -0.34375 8.007812 -0.160156 7.5 -0.015625 C 7 0.117188 6.414062 0.1875 5.75 0.1875 C 5.007812 0.1875 4.335938 0.0546875 3.734375 -0.203125 C 3.128906 -0.472656 2.609375 -0.851562 2.171875 -1.34375 C 1.734375 -1.84375 1.394531 -2.445312 1.15625 -3.15625 C 0.914062 -3.863281 0.796875 -4.660156 0.796875 -5.546875 C 0.796875 -6.398438 0.914062 -7.179688 1.15625 -7.890625 C 1.394531 -8.609375 1.738281 -9.226562 2.1875 -9.75 C 2.632812 -10.269531 3.175781 -10.671875 3.8125 -10.953125 C 4.445312 -11.242188 5.15625 -11.390625 5.9375 -11.390625 C 6.476562 -11.390625 6.960938 -11.335938 7.390625 -11.234375 C 7.828125 -11.140625 8.238281 -11 8.625 -10.8125 L 8.15625 -9.53125 C 7.820312 -9.695312 7.484375 -9.828125 7.140625 -9.921875 C 6.796875 -10.015625 6.390625 -10.0625 5.921875 -10.0625 C 5.410156 -10.0625 4.9375 -9.960938 4.5 -9.765625 C 4.0625 -9.566406 3.679688 -9.273438 3.359375 -8.890625 C 3.035156 -8.503906 2.785156 -8.035156 2.609375 -7.484375 C 2.441406 -6.941406 2.359375 -6.316406 2.359375 -5.609375 Z M 2.359375 -5.609375 "/></g></g></g><g fill="#1e1e1e" fill-opacity="0.4"><g transform="translate(201.491255, 282.58712)"><g/></g></g><g fill="#1e1e1e" fill-opacity="0.4"><g transform="translate(208.162101, 282.58712)"><g><path d="M 10.390625 -9.265625 L 7.390625 -2.53125 L 5.890625 -2.53125 L 2.875 -9.265625 L 2.875 0 L 1.4375 0 L 1.4375 -11.203125 L 3.5625 -11.203125 L 6.671875 -4.109375 L 9.734375 -11.203125 L 11.90625 -11.203125 L 11.90625 0 L 10.390625 0 Z M 10.390625 -9.265625 "/></g></g></g><g fill="#1e1e1e" fill-opacity="0.4"><g transform="translate(223.374903, 282.58712)"><g><path d="M 1.4375 0 L 1.4375 -11.203125 L 2.953125 -11.203125 L 2.953125 0 Z M 1.4375 0 "/></g></g></g><g fill="#1e1e1e" fill-opacity="0.4"><g transform="translate(229.645853, 282.58712)"><g><path d="M 8.09375 0 L 1.4375 0 L 1.4375 -11.203125 L 2.953125 -11.203125 L 2.953125 -1.359375 L 8.09375 -1.359375 Z M 8.09375 0 "/></g></g></g><g fill="#1e1e1e" fill-opacity="0.4"><g transform="translate(239.691888, 282.58712)"><g><path d="M 1.4375 -11.203125 L 8.15625 -11.203125 L 8.15625 -9.890625 L 2.953125 -9.890625 L 2.953125 -6.484375 L 7.4375 -6.484375 L 7.4375 -5.203125 L 2.953125 -5.203125 L 2.953125 -1.3125 L 8.15625 -1.3125 L 8.15625 0 L 1.4375 0 Z M 1.4375 -11.203125 "/></g></g></g><g fill="#1e1e1e" fill-opacity="0.4"><g transform="translate(250.441758, 282.58712)"><g><path d="M 1.25 -2.21875 C 1.632812 -1.90625 2.066406 -1.644531 2.546875 -1.4375 C 3.023438 -1.238281 3.582031 -1.140625 4.21875 -1.140625 C 4.988281 -1.140625 5.597656 -1.296875 6.046875 -1.609375 C 6.492188 -1.929688 6.71875 -2.363281 6.71875 -2.90625 C 6.71875 -3.132812 6.6875 -3.34375 6.625 -3.53125 C 6.5625 -3.726562 6.4375 -3.914062 6.25 -4.09375 C 6.0625 -4.269531 5.796875 -4.441406 5.453125 -4.609375 C 5.117188 -4.785156 4.6875 -4.976562 4.15625 -5.1875 C 3.582031 -5.40625 3.09375 -5.625 2.6875 -5.84375 C 2.289062 -6.0625 1.96875 -6.300781 1.71875 -6.5625 C 1.476562 -6.820312 1.304688 -7.109375 1.203125 -7.421875 C 1.097656 -7.742188 1.046875 -8.109375 1.046875 -8.515625 C 1.046875 -8.910156 1.125 -9.28125 1.28125 -9.625 C 1.445312 -9.976562 1.691406 -10.285156 2.015625 -10.546875 C 2.347656 -10.804688 2.75 -11.007812 3.21875 -11.15625 C 3.695312 -11.3125 4.238281 -11.390625 4.84375 -11.390625 C 5.507812 -11.390625 6.101562 -11.320312 6.625 -11.1875 C 7.144531 -11.050781 7.660156 -10.863281 8.171875 -10.625 L 7.609375 -9.328125 C 7.253906 -9.535156 6.832031 -9.710938 6.34375 -9.859375 C 5.851562 -10.003906 5.34375 -10.078125 4.8125 -10.078125 C 4.113281 -10.078125 3.5625 -9.941406 3.15625 -9.671875 C 2.75 -9.398438 2.546875 -9.039062 2.546875 -8.59375 C 2.546875 -8.375 2.570312 -8.179688 2.625 -8.015625 C 2.6875 -7.859375 2.804688 -7.703125 2.984375 -7.546875 C 3.160156 -7.390625 3.40625 -7.226562 3.71875 -7.0625 C 4.03125 -6.90625 4.445312 -6.734375 4.96875 -6.546875 C 5.59375 -6.304688 6.117188 -6.0625 6.546875 -5.8125 C 6.972656 -5.570312 7.3125 -5.3125 7.5625 -5.03125 C 7.820312 -4.757812 8.003906 -4.460938 8.109375 -4.140625 C 8.222656 -3.816406 8.28125 -3.46875 8.28125 -3.09375 C 8.28125 -2.5625 8.179688 -2.09375 7.984375 -1.6875 C 7.785156 -1.289062 7.503906 -0.945312 7.140625 -0.65625 C 6.785156 -0.375 6.359375 -0.160156 5.859375 -0.015625 C 5.359375 0.117188 4.8125 0.1875 4.21875 0.1875 C 3.445312 0.1875 2.738281 0.0820312 2.09375 -0.125 C 1.457031 -0.332031 0.921875 -0.601562 0.484375 -0.9375 Z M 1.25 -2.21875 "/></g></g></g><g fill="#ffffff" fill-opacity="1"><g transform="translate(114.40042, 282.374981)"><g><path d="M 10.390625 -9.265625 L 7.390625 -2.53125 L 5.890625 -2.53125 L 2.875 -9.265625 L 2.875 0 L 1.4375 0 L 1.4375 -11.203125 L 3.5625 -11.203125 L 6.671875 -4.109375 L 9.734375 -11.203125 L 11.90625 -11.203125 L 11.90625 0 L 10.390625 0 Z M 10.390625 -9.265625 "/></g></g></g><g fill="#ffffff" fill-opacity="1"><g transform="translate(129.613217, 282.374981)"><g><path d="M 0.15625 -0.40625 L 4.546875 -11.203125 L 6.203125 -11.203125 L 10.53125 -0.40625 L 9.140625 0.15625 L 7.890625 -3.046875 L 2.703125 -3.046875 L 1.453125 0.125 Z M 3.1875 -4.3125 L 7.390625 -4.3125 L 5.296875 -9.703125 Z M 3.1875 -4.3125 "/></g></g></g><g fill="#ffffff" fill-opacity="1"><g transform="translate(142.170642, 282.374981)"><g><path d="M 4.078125 -11.203125 L 5.59375 -11.203125 L 5.59375 -3.703125 C 5.59375 -3.015625 5.519531 -2.425781 5.375 -1.9375 C 5.226562 -1.445312 5.015625 -1.039062 4.734375 -0.71875 C 4.453125 -0.40625 4.117188 -0.175781 3.734375 -0.03125 C 3.359375 0.113281 2.9375 0.1875 2.46875 0.1875 C 1.976562 0.1875 1.515625 0.101562 1.078125 -0.0625 C 0.648438 -0.226562 0.289062 -0.453125 0 -0.734375 L 0.734375 -1.90625 C 0.953125 -1.675781 1.207031 -1.488281 1.5 -1.34375 C 1.800781 -1.195312 2.109375 -1.125 2.421875 -1.125 C 2.929688 -1.125 3.332031 -1.300781 3.625 -1.65625 C 3.925781 -2.019531 4.078125 -2.644531 4.078125 -3.53125 Z M 4.078125 -11.203125 "/></g></g></g><g fill="#ffffff" fill-opacity="1"><g transform="translate(150.920986, 282.374981)"><g><path d="M 1.4375 -11.203125 L 8.15625 -11.203125 L 8.15625 -9.890625 L 2.953125 -9.890625 L 2.953125 -6.484375 L 7.4375 -6.484375 L 7.4375 -5.203125 L 2.953125 -5.203125 L 2.953125 -1.3125 L 8.15625 -1.3125 L 8.15625 0 L 1.4375 0 Z M 1.4375 -11.203125 "/></g></g></g><g fill="#ffffff" fill-opacity="1"><g transform="translate(161.67085, 282.374981)"><g><path d="M 2.359375 -5.609375 C 2.359375 -4.941406 2.441406 -4.332031 2.609375 -3.78125 C 2.785156 -3.226562 3.03125 -2.753906 3.34375 -2.359375 C 3.664062 -1.972656 4.046875 -1.671875 4.484375 -1.453125 C 4.921875 -1.242188 5.398438 -1.140625 5.921875 -1.140625 C 6.441406 -1.140625 6.894531 -1.195312 7.28125 -1.3125 C 7.664062 -1.4375 8.039062 -1.609375 8.40625 -1.828125 L 8.859375 -0.5625 C 8.460938 -0.34375 8.007812 -0.160156 7.5 -0.015625 C 7 0.117188 6.414062 0.1875 5.75 0.1875 C 5.007812 0.1875 4.335938 0.0546875 3.734375 -0.203125 C 3.128906 -0.472656 2.609375 -0.851562 2.171875 -1.34375 C 1.734375 -1.84375 1.394531 -2.445312 1.15625 -3.15625 C 0.914062 -3.863281 0.796875 -4.660156 0.796875 -5.546875 C 0.796875 -6.398438 0.914062 -7.179688 1.15625 -7.890625 C 1.394531 -8.609375 1.738281 -9.226562 2.1875 -9.75 C 2.632812 -10.269531 3.175781 -10.671875 3.8125 -10.953125 C 4.445312 -11.242188 5.15625 -11.390625 5.9375 -11.390625 C 6.476562 -11.390625 6.960938 -11.335938 7.390625 -11.234375 C 7.828125 -11.140625 8.238281 -11 8.625 -10.8125 L 8.15625 -9.53125 C 7.820312 -9.695312 7.484375 -9.828125 7.140625 -9.921875 C 6.796875 -10.015625 6.390625 -10.0625 5.921875 -10.0625 C 5.410156 -10.0625 4.9375 -9.960938 4.5 -9.765625 C 4.0625 -9.566406 3.679688 -9.273438 3.359375 -8.890625 C 3.035156 -8.503906 2.785156 -8.035156 2.609375 -7.484375 C 2.441406 -6.941406 2.359375 -6.316406 2.359375 -5.609375 Z M 2.359375 -5.609375 "/></g></g></g><g fill="#ffffff" fill-opacity="1"><g transform="translate(173.044566, 282.374981)"><g><path d="M 0.15625 -11.203125 L 8.5625 -11.203125 L 8.5625 -9.859375 L 5.125 -9.859375 L 5.125 0 L 3.59375 0 L 3.59375 -9.859375 L 0.15625 -9.859375 Z M 0.15625 -11.203125 "/></g></g></g><g fill="#ffffff" fill-opacity="1"><g transform="translate(183.634464, 282.374981)"><g><path d="M 1.4375 0 L 1.4375 -11.203125 L 2.953125 -11.203125 L 2.953125 0 Z M 1.4375 0 "/></g></g></g><g fill="#ffffff" fill-opacity="1"><g transform="translate(189.905408, 282.374981)"><g><path d="M 2.359375 -5.609375 C 2.359375 -4.941406 2.441406 -4.332031 2.609375 -3.78125 C 2.785156 -3.226562 3.03125 -2.753906 3.34375 -2.359375 C 3.664062 -1.972656 4.046875 -1.671875 4.484375 -1.453125 C 4.921875 -1.242188 5.398438 -1.140625 5.921875 -1.140625 C 6.441406 -1.140625 6.894531 -1.195312 7.28125 -1.3125 C 7.664062 -1.4375 8.039062 -1.609375 8.40625 -1.828125 L 8.859375 -0.5625 C 8.460938 -0.34375 8.007812 -0.160156 7.5 -0.015625 C 7 0.117188 6.414062 0.1875 5.75 0.1875 C 5.007812 0.1875 4.335938 0.0546875 3.734375 -0.203125 C 3.128906 -0.472656 2.609375 -0.851562 2.171875 -1.34375 C 1.734375 -1.84375 1.394531 -2.445312 1.15625 -3.15625 C 0.914062 -3.863281 0.796875 -4.660156 0.796875 -5.546875 C 0.796875 -6.398438 0.914062 -7.179688 1.15625 -7.890625 C 1.394531 -8.609375 1.738281 -9.226562 2.1875 -9.75 C 2.632812 -10.269531 3.175781 -10.671875 3.8125 -10.953125 C 4.445312 -11.242188 5.15625 -11.390625 5.9375 -11.390625 C 6.476562 -11.390625 6.960938 -11.335938 7.390625 -11.234375 C 7.828125 -11.140625 8.238281 -11 8.625 -10.8125 L 8.15625 -9.53125 C 7.820312 -9.695312 7.484375 -9.828125 7.140625 -9.921875 C 6.796875 -10.015625 6.390625 -10.0625 5.921875 -10.0625 C 5.410156 -10.0625 4.9375 -9.960938 4.5 -9.765625 C 4.0625 -9.566406 3.679688 -9.273438 3.359375 -8.890625 C 3.035156 -8.503906 2.785156 -8.035156 2.609375 -7.484375 C 2.441406 -6.941406 2.359375 -6.316406 2.359375 -5.609375 Z M 2.359375 -5.609375 "/></g></g></g><g fill="#ffffff" fill-opacity="1"><g transform="translate(201.279124, 282.374981)"><g/></g></g><g fill="#ffffff" fill-opacity="1"><g transform="translate(207.94997, 282.374981)"><g><path d="M 10.390625 -9.265625 L 7.390625 -2.53125 L 5.890625 -2.53125 L 2.875 -9.265625 L 2.875 0 L 1.4375 0 L 1.4375 -11.203125 L 3.5625 -11.203125 L 6.671875 -4.109375 L 9.734375 -11.203125 L 11.90625 -11.203125 L 11.90625 0 L 10.390625 0 Z M 10.390625 -9.265625 "/></g></g></g><g fill="#ffffff" fill-opacity="1"><g transform="translate(223.162772, 282.374981)"><g><path d="M 1.4375 0 L 1.4375 -11.203125 L 2.953125 -11.203125 L 2.953125 0 Z M 1.4375 0 "/></g></g></g><g fill="#ffffff" fill-opacity="1"><g transform="translate(229.433722, 282.374981)"><g><path d="M 8.09375 0 L 1.4375 0 L 1.4375 -11.203125 L 2.953125 -11.203125 L 2.953125 -1.359375 L 8.09375 -1.359375 Z M 8.09375 0 "/></g></g></g><g fill="#ffffff" fill-opacity="1"><g transform="translate(239.479757, 282.374981)"><g><path d="M 1.4375 -11.203125 L 8.15625 -11.203125 L 8.15625 -9.890625 L 2.953125 -9.890625 L 2.953125 -6.484375 L 7.4375 -6.484375 L 7.4375 -5.203125 L 2.953125 -5.203125 L 2.953125 -1.3125 L 8.15625 -1.3125 L 8.15625 0 L 1.4375 0 Z M 1.4375 -11.203125 "/></g></g></g><g fill="#ffffff" fill-opacity="1"><g transform="translate(250.229627, 282.374981)"><g><path d="M 1.25 -2.21875 C 1.632812 -1.90625 2.066406 -1.644531 2.546875 -1.4375 C 3.023438 -1.238281 3.582031 -1.140625 4.21875 -1.140625 C 4.988281 -1.140625 5.597656 -1.296875 6.046875 -1.609375 C 6.492188 -1.929688 6.71875 -2.363281 6.71875 -2.90625 C 6.71875 -3.132812 6.6875 -3.34375 6.625 -3.53125 C 6.5625 -3.726562 6.4375 -3.914062 6.25 -4.09375 C 6.0625 -4.269531 5.796875 -4.441406 5.453125 -4.609375 C 5.117188 -4.785156 4.6875 -4.976562 4.15625 -5.1875 C 3.582031 -5.40625 3.09375 -5.625 2.6875 -5.84375 C 2.289062 -6.0625 1.96875 -6.300781 1.71875 -6.5625 C 1.476562 -6.820312 1.304688 -7.109375 1.203125 -7.421875 C 1.097656 -7.742188 1.046875 -8.109375 1.046875 -8.515625 C 1.046875 -8.910156 1.125 -9.28125 1.28125 -9.625 C 1.445312 -9.976562 1.691406 -10.285156 2.015625 -10.546875 C 2.347656 -10.804688 2.75 -11.007812 3.21875 -11.15625 C 3.695312 -11.3125 4.238281 -11.390625 4.84375 -11.390625 C 5.507812 -11.390625 6.101562 -11.320312 6.625 -11.1875 C 7.144531 -11.050781 7.660156 -10.863281 8.171875 -10.625 L 7.609375 -9.328125 C 7.253906 -9.535156 6.832031 -9.710938 6.34375 -9.859375 C 5.851562 -10.003906 5.34375 -10.078125 4.8125 -10.078125 C 4.113281 -10.078125 3.5625 -9.941406 3.15625 -9.671875 C 2.75 -9.398438 2.546875 -9.039062 2.546875 -8.59375 C 2.546875 -8.375 2.570312 -8.179688 2.625 -8.015625 C 2.6875 -7.859375 2.804688 -7.703125 2.984375 -7.546875 C 3.160156 -7.390625 3.40625 -7.226562 3.71875 -7.0625 C 4.03125 -6.90625 4.445312 -6.734375 4.96875 -6.546875 C 5.59375 -6.304688 6.117188 -6.0625 6.546875 -5.8125 C 6.972656 -5.570312 7.3125 -5.3125 7.5625 -5.03125 C 7.820312 -4.757812 8.003906 -4.460938 8.109375 -4.140625 C 8.222656 -3.816406 8.28125 -3.46875 8.28125 -3.09375 C 8.28125 -2.5625 8.179688 -2.09375 7.984375 -1.6875 C 7.785156 -1.289062 7.503906 -0.945312 7.140625 -0.65625 C 6.785156 -0.375 6.359375 -0.160156 5.859375 -0.015625 C 5.359375 0.117188 4.8125 0.1875 4.21875 0.1875 C 3.445312 0.1875 2.738281 0.0820312 2.09375 -0.125 C 1.457031 -0.332031 0.921875 -0.601562 0.484375 -0.9375 Z M 1.25 -2.21875 "/></g></g></g><path stroke-linecap="butt" transform="matrix(0.75, 0, 0, 0.75, 48.357412, 276.749982)" fill="none" stroke-linejoin="miter" d="M -0.00259063 1.000024 L 41.049495 1.000024 " stroke="#ece6db" stroke-width="2" stroke-opacity="1" stroke-miterlimit="4"/><path stroke-linecap="butt" transform="matrix(0.75, 0, 0, 0.75, 295.857407, 276.749982)" fill="none" stroke-linejoin="miter" d="M -0.00258496 1.000024 L 41.049501 1.000024 " stroke="#ece6db" stroke-width="2" stroke-opacity="1" stroke-miterlimit="4"/></svg>